<?xml version="1.0" encoding="UTF-8"?>
<svg xmlns="http://www.w3.org/2000/svg" xmlns:xlink="http://www.w3.org/1999/xlink" width="240" height="381" viewBox="0 0 240 381">
<path fill-rule="nonzero" fill="rgb(100%, 100%, 100%)" fill-opacity="1" d="M 0 380.578125 L 0 0.425781 L 240 0.425781 L 240 380.578125 Z M 0 380.578125 "/>
<path fill="none" stroke-width="1" stroke-linecap="butt" stroke-linejoin="miter" stroke="rgb(40%, 40%, 40%)" stroke-opacity="1" stroke-miterlimit="4" d="M 36.170354 -158.169249 C 51.165666 -159.540652 72.539962 -161.4998 88.820475 -162.988751 " transform="matrix(0.996926, 0, 0, 0.996926, 3.987704, 376.589306)"/>
<path fill-rule="nonzero" fill="rgb(40%, 40%, 40%)" fill-opacity="1" stroke-width="1" stroke-linecap="butt" stroke-linejoin="miter" stroke="rgb(40%, 40%, 40%)" stroke-opacity="1" stroke-miterlimit="4" d="M 88.988962 -164.763739 L 94.125846 -163.47462 L 89.306344 -161.276457 Z M 88.988962 -164.763739 " transform="matrix(0.996926, 0, 0, 0.996926, 3.987704, 376.589306)"/>
<path fill="none" stroke-width="1" stroke-linecap="butt" stroke-linejoin="miter" stroke="rgb(40%, 40%, 40%)" stroke-opacity="1" stroke-miterlimit="4" d="M 23.706259 -139.016627 C 29.391705 -121.584135 38.149092 -94.743819 44.339998 -75.771437 " transform="matrix(0.996926, 0, 0, 0.996926, 3.987704, 376.589306)"/>
<path fill-rule="nonzero" fill="rgb(40%, 40%, 40%)" fill-opacity="1" stroke-width="1" stroke-linecap="butt" stroke-linejoin="miter" stroke="rgb(40%, 40%, 40%)" stroke-opacity="1" stroke-miterlimit="4" d="M 46.122821 -75.939924 L 46.009191 -70.646308 L 42.79619 -74.854556 Z M 46.122821 -75.939924 " transform="matrix(0.996926, 0, 0, 0.996926, 3.987704, 376.589306)"/>
<path fill="none" stroke-width="1" stroke-linecap="butt" stroke-linejoin="miter" stroke="rgb(40%, 40%, 40%)" stroke-opacity="1" stroke-miterlimit="4" d="M 103.55718 -149.129744 C 92.801462 -129.299257 74.459926 -95.496131 62.705043 -73.824045 " transform="matrix(0.996926, 0, 0, 0.996926, 3.987704, 376.589306)"/>
<path fill-rule="nonzero" fill="rgb(40%, 40%, 40%)" fill-opacity="1" stroke-width="1" stroke-linecap="butt" stroke-linejoin="miter" stroke="rgb(40%, 40%, 40%)" stroke-opacity="1" stroke-miterlimit="4" d="M 64.221423 -72.954184 L 60.29921 -69.392454 L 61.145562 -74.623377 Z M 64.221423 -72.954184 " transform="matrix(0.996926, 0, 0, 0.996926, 3.987704, 376.589306)"/>
<path fill="none" stroke-width="1" stroke-linecap="butt" stroke-linejoin="miter" stroke="rgb(40%, 40%, 40%)" stroke-opacity="1" stroke-miterlimit="4" d="M 67.951639 -275.326251 C 88.985043 -270.592951 124.167409 -262.674078 147.218734 -257.486256 " transform="matrix(0.996926, 0, 0, 0.996926, 3.987704, 376.589306)"/>
<path fill-rule="nonzero" fill="rgb(40%, 40%, 40%)" fill-opacity="1" stroke-width="1" stroke-linecap="butt" stroke-linejoin="miter" stroke="rgb(40%, 40%, 40%)" stroke-opacity="1" stroke-miterlimit="4" d="M 147.735949 -259.163286 L 152.230233 -256.357788 L 146.967963 -255.750452 Z M 147.735949 -259.163286 " transform="matrix(0.996926, 0, 0, 0.996926, 3.987704, 376.589306)"/>
<path fill="none" stroke-width="1" stroke-linecap="butt" stroke-linejoin="miter" stroke="rgb(40%, 40%, 40%)" stroke-opacity="1" stroke-miterlimit="4" d="M 63.661107 -291.853616 C 77.488768 -304.838844 99.125589 -325.159118 114.179676 -339.296324 " transform="matrix(0.996926, 0, 0, 0.996926, 3.987704, 376.589306)"/>
<path fill-rule="nonzero" fill="rgb(40%, 40%, 40%)" fill-opacity="1" stroke-width="1" stroke-linecap="butt" stroke-linejoin="miter" stroke="rgb(40%, 40%, 40%)" stroke-opacity="1" stroke-miterlimit="4" d="M 113.012024 -340.605035 L 117.855036 -342.75226 L 115.406102 -338.050307 Z M 113.012024 -340.605035 " transform="matrix(0.996926, 0, 0, 0.996926, 3.987704, 376.589306)"/>
<path fill="none" stroke-width="1" stroke-linecap="butt" stroke-linejoin="miter" stroke="rgb(40%, 40%, 40%)" stroke-opacity="1" stroke-miterlimit="4" d="M 163.565858 -269.370443 C 157.010552 -286.806853 146.779885 -314.007653 139.585897 -333.132847 " transform="matrix(0.996926, 0, 0, 0.996926, 3.987704, 376.589306)"/>
<path fill-rule="nonzero" fill="rgb(40%, 40%, 40%)" fill-opacity="1" stroke-width="1" stroke-linecap="butt" stroke-linejoin="miter" stroke="rgb(40%, 40%, 40%)" stroke-opacity="1" stroke-miterlimit="4" d="M 137.767808 -332.999625 L 137.642423 -338.297159 L 141.043502 -334.233888 Z M 137.767808 -332.999625 " transform="matrix(0.996926, 0, 0, 0.996926, 3.987704, 376.589306)"/>
<path fill="none" stroke-width="1" stroke-linecap="butt" stroke-linejoin="miter" stroke="rgb(40%, 40%, 40%)" stroke-opacity="1" stroke-miterlimit="4" d="M 137.889275 -86.100061 C 153.70743 -97.071285 178.514151 -114.272598 195.641016 -126.148948 " transform="matrix(0.996926, 0, 0, 0.996926, 3.987704, 376.589306)"/>
<path fill-rule="nonzero" fill="rgb(40%, 40%, 40%)" fill-opacity="1" stroke-width="1" stroke-linecap="butt" stroke-linejoin="miter" stroke="rgb(40%, 40%, 40%)" stroke-opacity="1" stroke-miterlimit="4" d="M 194.716298 -127.633981 L 199.821836 -129.048486 L 196.71071 -124.757953 Z M 194.716298 -127.633981 " transform="matrix(0.996926, 0, 0, 0.996926, 3.987704, 376.589306)"/>
<path fill="none" stroke-width="1" stroke-linecap="butt" stroke-linejoin="miter" stroke="rgb(40%, 40%, 40%)" stroke-opacity="1" stroke-miterlimit="4" d="M 136.028086 -63.072245 C 145.130283 -54.549955 157.269159 -43.182983 167.080568 -33.998501 " transform="matrix(0.996926, 0, 0, 0.996926, 3.987704, 376.589306)"/>
<path fill-rule="nonzero" fill="rgb(40%, 40%, 40%)" fill-opacity="1" stroke-width="1" stroke-linecap="butt" stroke-linejoin="miter" stroke="rgb(40%, 40%, 40%)" stroke-opacity="1" stroke-miterlimit="4" d="M 168.397115 -35.162234 L 170.849968 -30.4642 L 166.003037 -32.607507 Z M 168.397115 -35.162234 " transform="matrix(0.996926, 0, 0, 0.996926, 3.987704, 376.589306)"/>
<path fill="none" stroke-width="1" stroke-linecap="butt" stroke-linejoin="miter" stroke="rgb(40%, 40%, 40%)" stroke-opacity="1" stroke-miterlimit="4" d="M 210.291519 -121.740867 C 204.903864 -100.343061 195.809503 -64.243815 189.896796 -40.769314 " transform="matrix(0.996926, 0, 0, 0.996926, 3.987704, 376.589306)"/>
<path fill-rule="nonzero" fill="rgb(40%, 40%, 40%)" fill-opacity="1" stroke-width="1" stroke-linecap="butt" stroke-linejoin="miter" stroke="rgb(40%, 40%, 40%)" stroke-opacity="1" stroke-miterlimit="4" d="M 191.534643 -40.095367 L 188.615514 -35.671613 L 188.137482 -40.949555 Z M 191.534643 -40.095367 " transform="matrix(0.996926, 0, 0, 0.996926, 3.987704, 376.589306)"/>
<path fill-rule="nonzero" fill="rgb(94.117647%, 97.254902%, 100%)" fill-opacity="1" stroke-width="1" stroke-linecap="butt" stroke-linejoin="miter" stroke="rgb(70.196078%, 70.196078%, 70.196078%)" stroke-opacity="1" stroke-miterlimit="4" d="M 36.001867 -156.507893 C 36.001867 -146.563261 27.941936 -138.507248 18.001223 -138.507248 C 8.06051 -138.507248 0.000578542 -146.563261 0.000578542 -156.507893 C 0.000578542 -166.448605 8.06051 -174.504619 18.001223 -174.504619 C 27.941936 -174.504619 36.001867 -166.448605 36.001867 -156.507893 Z M 36.001867 -156.507893 " transform="matrix(0.996926, 0, 0, 0.996926, 3.987704, 376.589306)"/>
<path fill-rule="nonzero" fill="rgb(0%, 0%, 0%)" fill-opacity="1" d="M 9.257812 223.554688 L 6.441406 223.554688 L 6.441406 222.8125 L 7.367188 222.8125 L 7.367188 217.046875 L 6.441406 217.046875 L 6.441406 216.304688 L 9.257812 216.304688 L 9.257812 217.046875 L 8.328125 217.046875 L 8.328125 222.8125 L 9.257812 222.8125 Z M 11.746094 223.6875 C 11.378906 223.683594 11.039062 223.636719 10.726562 223.542969 C 10.40625 223.445312 10.144531 223.339844 9.9375 223.226562 L 9.9375 222.199219 L 9.984375 222.199219 C 10.0625 222.261719 10.152344 222.332031 10.261719 222.40625 C 10.363281 222.484375 10.503906 222.558594 10.683594 222.636719 C 10.832031 222.710938 11.003906 222.773438 11.195312 222.828125 C 11.378906 222.882812 11.574219 222.910156 11.777344 222.910156 C 11.921875 222.910156 12.074219 222.894531 12.242188 222.859375 C 12.40625 222.828125 12.53125 222.785156 12.613281 222.730469 C 12.726562 222.65625 12.808594 222.578125 12.859375 222.492188 C 12.910156 222.414062 12.933594 222.285156 12.9375 222.113281 C 12.933594 221.898438 12.875 221.734375 12.757812 221.621094 C 12.636719 221.511719 12.425781 221.417969 12.125 221.339844 C 12.007812 221.3125 11.855469 221.277344 11.667969 221.238281 C 11.480469 221.203125 11.304688 221.164062 11.148438 221.117188 C 10.730469 221 10.429688 220.8125 10.242188 220.558594 C 10.054688 220.308594 9.960938 220.003906 9.960938 219.644531 C 9.960938 219.160156 10.144531 218.757812 10.515625 218.449219 C 10.882812 218.140625 11.375 217.988281 11.992188 217.984375 C 12.289062 217.988281 12.59375 218.023438 12.902344 218.097656 C 13.203125 218.175781 13.457031 218.269531 13.667969 218.378906 L 13.667969 219.355469 L 13.621094 219.355469 C 13.382812 219.171875 13.125 219.027344 12.839844 218.917969 C 12.550781 218.816406 12.261719 218.761719 11.972656 218.757812 C 11.667969 218.761719 11.410156 218.824219 11.207031 218.949219 C 10.996094 219.074219 10.894531 219.265625 10.894531 219.523438 C 10.894531 219.75 10.953125 219.921875 11.078125 220.03125 C 11.199219 220.144531 11.398438 220.234375 11.675781 220.304688 C 11.808594 220.34375 11.960938 220.378906 12.125 220.410156 C 12.292969 220.445312 12.46875 220.488281 12.65625 220.53125 C 13.058594 220.632812 13.359375 220.796875 13.566406 221.03125 C 13.765625 221.261719 13.867188 221.582031 13.871094 221.988281 C 13.867188 222.222656 13.820312 222.445312 13.730469 222.652344 C 13.632812 222.863281 13.5 223.042969 13.324219 223.1875 C 13.132812 223.355469 12.910156 223.476562 12.664062 223.558594 C 12.417969 223.640625 12.109375 223.683594 11.746094 223.6875 Z M 16.191406 223.6875 C 15.828125 223.683594 15.488281 223.636719 15.171875 223.542969 C 14.851562 223.445312 14.589844 223.339844 14.386719 223.226562 L 14.386719 222.199219 L 14.433594 222.199219 C 14.511719 222.261719 14.597656 222.332031 14.707031 222.40625 C 14.808594 222.484375 14.949219 222.558594 15.128906 222.636719 C 15.28125 222.710938 15.453125 222.773438 15.644531 222.828125 C 15.828125 222.882812 16.019531 222.910156 16.222656 222.910156 C 16.367188 222.910156 16.523438 222.894531 16.691406 222.859375 C 16.855469 222.828125 16.980469 222.785156 17.0625 222.730469 C 17.171875 222.65625 17.253906 222.578125 17.304688 222.492188 C 17.355469 222.414062 17.378906 222.285156 17.382812 222.113281 C 17.378906 221.898438 17.320312 221.734375 17.203125 221.621094 C 17.085938 221.511719 16.875 221.417969 16.574219 221.339844 C 16.453125 221.3125 16.300781 221.277344 16.113281 221.238281 C 15.925781 221.203125 15.753906 221.164062 15.597656 221.117188 C 15.175781 221 14.875 220.8125 14.6875 220.558594 C 14.503906 220.308594 14.410156 220.003906 14.410156 219.644531 C 14.410156 219.160156 14.589844 218.757812 14.960938 218.449219 C 15.332031 218.140625 15.824219 217.988281 16.4375 217.984375 C 16.738281 217.988281 17.042969 218.023438 17.347656 218.097656 C 17.648438 218.175781 17.90625 218.269531 18.117188 218.378906 L 18.117188 219.355469 L 18.070312 219.355469 C 17.832031 219.171875 17.570312 219.027344 17.285156 218.917969 C 17 218.816406 16.710938 218.761719 16.417969 218.757812 C 16.113281 218.761719 15.855469 218.824219 15.65625 218.949219 C 15.445312 219.074219 15.34375 219.265625 15.34375 219.523438 C 15.34375 219.75 15.402344 219.921875 15.527344 220.03125 C 15.648438 220.144531 15.84375 220.234375 16.121094 220.304688 C 16.253906 220.34375 16.40625 220.378906 16.574219 220.410156 C 16.742188 220.445312 16.917969 220.488281 17.101562 220.53125 C 17.503906 220.632812 17.808594 220.796875 18.015625 221.03125 C 18.214844 221.261719 18.316406 221.582031 18.320312 221.988281 C 18.316406 222.222656 18.269531 222.445312 18.179688 222.652344 C 18.082031 222.863281 17.949219 223.042969 17.773438 223.1875 C 17.578125 223.355469 17.355469 223.476562 17.109375 223.558594 C 16.867188 223.640625 16.558594 223.683594 16.191406 223.6875 Z M 23.410156 223.554688 L 22.488281 223.554688 L 22.488281 222.949219 C 22.203125 223.199219 21.941406 223.386719 21.6875 223.515625 C 21.433594 223.644531 21.148438 223.707031 20.84375 223.707031 C 20.601562 223.707031 20.378906 223.667969 20.171875 223.589844 C 19.957031 223.511719 19.773438 223.390625 19.625 223.21875 C 19.464844 223.054688 19.34375 222.839844 19.261719 222.578125 C 19.171875 222.328125 19.128906 222.015625 19.132812 221.644531 L 19.132812 218.117188 L 20.046875 218.117188 L 20.046875 221.214844 C 20.042969 221.503906 20.054688 221.742188 20.078125 221.929688 C 20.097656 222.121094 20.144531 222.289062 20.222656 222.429688 C 20.292969 222.570312 20.394531 222.671875 20.527344 222.734375 C 20.652344 222.800781 20.839844 222.835938 21.078125 222.832031 C 21.300781 222.835938 21.539062 222.773438 21.792969 222.644531 C 22.046875 222.519531 22.273438 222.363281 22.488281 222.175781 L 22.488281 218.117188 L 23.410156 218.117188 Z M 27.089844 223.679688 C 26.214844 223.675781 25.546875 223.433594 25.070312 222.945312 C 24.59375 222.460938 24.351562 221.765625 24.355469 220.867188 C 24.351562 219.980469 24.585938 219.277344 25.046875 218.75 C 25.511719 218.230469 26.117188 217.96875 26.871094 217.964844 C 27.207031 217.96875 27.5 218.019531 27.765625 218.113281 C 28.023438 218.214844 28.253906 218.367188 28.449219 218.570312 C 28.640625 218.777344 28.789062 219.03125 28.894531 219.332031 C 28.996094 219.632812 29.046875 219.996094 29.050781 220.433594 L 29.050781 220.929688 L 25.28125 220.929688 C 25.28125 221.566406 25.441406 222.050781 25.761719 222.382812 C 26.078125 222.71875 26.519531 222.886719 27.082031 222.882812 C 27.277344 222.886719 27.472656 222.863281 27.667969 222.8125 C 27.859375 222.769531 28.035156 222.710938 28.195312 222.636719 C 28.359375 222.5625 28.5 222.488281 28.609375 222.421875 C 28.722656 222.351562 28.816406 222.289062 28.894531 222.226562 L 28.949219 222.226562 L 28.949219 223.222656 C 28.839844 223.265625 28.703125 223.320312 28.546875 223.382812 C 28.386719 223.449219 28.246094 223.496094 28.121094 223.53125 C 27.941406 223.578125 27.777344 223.613281 27.632812 223.640625 C 27.488281 223.664062 27.304688 223.675781 27.089844 223.679688 Z M 28.160156 220.226562 C 28.152344 219.984375 28.125 219.773438 28.074219 219.59375 C 28.019531 219.414062 27.941406 219.261719 27.847656 219.136719 C 27.738281 219.003906 27.601562 218.902344 27.433594 218.828125 C 27.265625 218.757812 27.0625 218.722656 26.816406 218.71875 C 26.570312 218.722656 26.363281 218.757812 26.191406 218.828125 C 26.019531 218.902344 25.867188 219.007812 25.734375 219.148438 C 25.59375 219.292969 25.488281 219.453125 25.417969 219.625 C 25.34375 219.800781 25.300781 220 25.28125 220.226562 Z M 37.066406 223.554688 L 33.53125 223.554688 L 33.53125 222.8125 L 34.84375 222.8125 L 34.84375 217.953125 L 33.53125 217.953125 L 33.53125 217.292969 C 34.027344 217.292969 34.394531 217.222656 34.628906 217.082031 C 34.859375 216.941406 34.992188 216.675781 35.023438 216.277344 L 35.78125 216.277344 L 35.78125 222.8125 L 37.066406 222.8125 Z M 5.988281 213.582031 "/>
<path fill-rule="nonzero" fill="rgb(94.117647%, 97.254902%, 100%)" fill-opacity="1" stroke-width="1" stroke-linecap="butt" stroke-linejoin="miter" stroke="rgb(70.196078%, 70.196078%, 70.196078%)" stroke-opacity="1" stroke-miterlimit="4" d="M 130.240765 -165.135977 C 130.240765 -155.191346 122.184752 -147.135332 112.244039 -147.135332 C 102.299408 -147.135332 94.243394 -155.191346 94.243394 -165.135977 C 94.243394 -175.07669 102.299408 -183.132703 112.244039 -183.132703 C 122.184752 -183.132703 130.240765 -175.07669 130.240765 -165.135977 Z M 130.240765 -165.135977 " transform="matrix(0.996926, 0, 0, 0.996926, 3.987704, 376.589306)"/>
<path fill-rule="nonzero" fill="rgb(0%, 0%, 0%)" fill-opacity="1" d="M 103.210938 214.949219 L 100.394531 214.949219 L 100.394531 214.210938 L 101.320312 214.210938 L 101.320312 208.445312 L 100.394531 208.445312 L 100.394531 207.703125 L 103.210938 207.703125 L 103.210938 208.445312 L 102.28125 208.445312 L 102.28125 214.210938 L 103.210938 214.210938 Z M 105.699219 215.082031 C 105.332031 215.078125 104.992188 215.03125 104.675781 214.9375 C 104.359375 214.84375 104.097656 214.738281 103.890625 214.625 L 103.890625 213.597656 L 103.9375 213.597656 C 104.015625 213.65625 104.105469 213.726562 104.214844 213.800781 C 104.316406 213.878906 104.457031 213.957031 104.632812 214.035156 C 104.785156 214.109375 104.957031 214.171875 105.148438 214.226562 C 105.332031 214.28125 105.527344 214.308594 105.730469 214.308594 C 105.871094 214.308594 106.027344 214.292969 106.195312 214.257812 C 106.359375 214.226562 106.484375 214.183594 106.566406 214.128906 C 106.679688 214.054688 106.761719 213.976562 106.8125 213.890625 C 106.863281 213.808594 106.886719 213.679688 106.890625 213.511719 C 106.886719 213.296875 106.828125 213.132812 106.710938 213.019531 C 106.589844 212.910156 106.378906 212.816406 106.078125 212.738281 C 105.957031 212.710938 105.804688 212.675781 105.621094 212.636719 C 105.433594 212.597656 105.257812 212.558594 105.101562 212.511719 C 104.679688 212.394531 104.382812 212.210938 104.195312 211.957031 C 104.007812 211.707031 103.914062 211.402344 103.914062 211.042969 C 103.914062 210.558594 104.097656 210.15625 104.46875 209.84375 C 104.835938 209.539062 105.328125 209.386719 105.941406 209.382812 C 106.242188 209.386719 106.546875 209.421875 106.855469 209.496094 C 107.152344 209.574219 107.410156 209.667969 107.621094 209.777344 L 107.621094 210.753906 L 107.574219 210.753906 C 107.335938 210.570312 107.074219 210.425781 106.792969 210.316406 C 106.503906 210.214844 106.214844 210.160156 105.921875 210.15625 C 105.621094 210.160156 105.363281 210.222656 105.160156 210.347656 C 104.949219 210.472656 104.847656 210.664062 104.847656 210.921875 C 104.847656 211.144531 104.90625 211.316406 105.03125 211.429688 C 105.152344 211.542969 105.351562 211.632812 105.628906 211.703125 C 105.761719 211.742188 105.910156 211.777344 106.078125 211.808594 C 106.246094 211.84375 106.421875 211.886719 106.609375 211.929688 C 107.011719 212.03125 107.3125 212.195312 107.519531 212.425781 C 107.71875 212.660156 107.820312 212.980469 107.824219 213.386719 C 107.820312 213.621094 107.773438 213.839844 107.683594 214.050781 C 107.585938 214.261719 107.453125 214.441406 107.277344 214.585938 C 107.082031 214.753906 106.863281 214.875 106.617188 214.953125 C 106.371094 215.035156 106.0625 215.078125 105.699219 215.082031 Z M 110.144531 215.082031 C 109.777344 215.078125 109.441406 215.03125 109.125 214.9375 C 108.804688 214.84375 108.542969 214.738281 108.335938 214.625 L 108.335938 213.597656 L 108.382812 213.597656 C 108.460938 213.65625 108.550781 213.726562 108.660156 213.800781 C 108.761719 213.878906 108.902344 213.957031 109.082031 214.035156 C 109.234375 214.109375 109.40625 214.171875 109.59375 214.226562 C 109.777344 214.28125 109.972656 214.308594 110.175781 214.308594 C 110.320312 214.308594 110.476562 214.292969 110.644531 214.257812 C 110.808594 214.226562 110.929688 214.183594 111.011719 214.128906 C 111.125 214.054688 111.207031 213.976562 111.257812 213.890625 C 111.308594 213.808594 111.332031 213.679688 111.335938 213.511719 C 111.332031 213.296875 111.273438 213.132812 111.15625 213.019531 C 111.035156 212.910156 110.828125 212.816406 110.527344 212.738281 C 110.40625 212.710938 110.253906 212.675781 110.066406 212.636719 C 109.878906 212.597656 109.703125 212.558594 109.550781 212.511719 C 109.128906 212.394531 108.828125 212.210938 108.640625 211.957031 C 108.453125 211.707031 108.359375 211.402344 108.359375 211.042969 C 108.359375 210.558594 108.542969 210.15625 108.914062 209.84375 C 109.285156 209.539062 109.773438 209.386719 110.390625 209.382812 C 110.691406 209.386719 110.992188 209.421875 111.300781 209.496094 C 111.601562 209.574219 111.859375 209.667969 112.070312 209.777344 L 112.070312 210.753906 L 112.023438 210.753906 C 111.785156 210.570312 111.523438 210.425781 111.238281 210.316406 C 110.949219 210.214844 110.664062 210.160156 110.371094 210.15625 C 110.066406 210.160156 109.808594 210.222656 109.605469 210.347656 C 109.398438 210.472656 109.296875 210.664062 109.296875 210.921875 C 109.296875 211.144531 109.355469 211.316406 109.480469 211.429688 C 109.597656 211.542969 109.796875 211.632812 110.074219 211.703125 C 110.207031 211.742188 110.359375 211.777344 110.527344 211.808594 C 110.695312 211.84375 110.867188 211.886719 111.054688 211.929688 C 111.457031 212.03125 111.761719 212.195312 111.96875 212.425781 C 112.164062 212.660156 112.265625 212.980469 112.269531 213.386719 C 112.265625 213.621094 112.21875 213.839844 112.128906 214.050781 C 112.035156 214.261719 111.902344 214.441406 111.726562 214.585938 C 111.53125 214.753906 111.308594 214.875 111.0625 214.953125 C 110.820312 215.035156 110.511719 215.078125 110.144531 215.082031 Z M 117.359375 214.949219 L 116.441406 214.949219 L 116.441406 214.347656 C 116.15625 214.597656 115.894531 214.785156 115.640625 214.910156 C 115.386719 215.039062 115.101562 215.101562 114.792969 215.101562 C 114.554688 215.101562 114.332031 215.0625 114.125 214.984375 C 113.910156 214.90625 113.726562 214.789062 113.574219 214.617188 C 113.414062 214.453125 113.296875 214.238281 113.214844 213.976562 C 113.125 213.722656 113.082031 213.414062 113.085938 213.042969 L 113.085938 209.515625 L 114 209.515625 L 114 212.609375 C 113.996094 212.902344 114.007812 213.140625 114.03125 213.328125 C 114.050781 213.519531 114.097656 213.683594 114.175781 213.824219 C 114.246094 213.96875 114.347656 214.070312 114.480469 214.132812 C 114.605469 214.199219 114.789062 214.234375 115.03125 214.230469 C 115.253906 214.234375 115.492188 214.171875 115.746094 214.042969 C 115.996094 213.917969 116.226562 213.757812 116.441406 213.574219 L 116.441406 209.515625 L 117.359375 209.515625 Z M 121.039062 215.074219 C 120.167969 215.070312 119.5 214.832031 119.023438 214.34375 C 118.542969 213.855469 118.304688 213.164062 118.308594 212.265625 C 118.304688 211.378906 118.535156 210.675781 119 210.148438 C 119.464844 209.628906 120.070312 209.367188 120.824219 209.363281 C 121.15625 209.367188 121.453125 209.417969 121.71875 209.511719 C 121.976562 209.613281 122.207031 209.765625 122.398438 209.964844 C 122.59375 210.175781 122.742188 210.429688 122.847656 210.730469 C 122.949219 211.03125 123 211.394531 123.003906 211.832031 L 123.003906 212.328125 L 119.234375 212.328125 C 119.234375 212.964844 119.394531 213.449219 119.714844 213.777344 C 120.03125 214.117188 120.472656 214.285156 121.03125 214.28125 C 121.230469 214.285156 121.425781 214.261719 121.621094 214.210938 C 121.8125 214.167969 121.988281 214.109375 122.148438 214.035156 C 122.308594 213.960938 122.449219 213.886719 122.5625 213.816406 C 122.675781 213.746094 122.769531 213.683594 122.847656 213.621094 L 122.902344 213.621094 L 122.902344 214.621094 C 122.792969 214.664062 122.65625 214.71875 122.5 214.78125 C 122.335938 214.847656 122.199219 214.890625 122.074219 214.925781 C 121.894531 214.972656 121.730469 215.007812 121.585938 215.035156 C 121.441406 215.058594 121.257812 215.070312 121.039062 215.074219 Z M 122.113281 211.625 C 122.105469 211.382812 122.078125 211.167969 122.027344 210.992188 C 121.972656 210.8125 121.894531 210.660156 121.800781 210.535156 C 121.691406 210.402344 121.554688 210.300781 121.386719 210.226562 C 121.21875 210.15625 121.011719 210.121094 120.769531 210.117188 C 120.523438 210.121094 120.316406 210.15625 120.144531 210.226562 C 119.972656 210.300781 119.816406 210.40625 119.6875 210.546875 C 119.546875 210.691406 119.441406 210.851562 119.371094 211.023438 C 119.296875 211.195312 119.253906 211.398438 119.234375 211.625 Z M 131.386719 214.949219 L 126.914062 214.949219 L 126.914062 213.933594 C 127.234375 213.628906 127.535156 213.339844 127.824219 213.058594 C 128.109375 212.777344 128.390625 212.488281 128.660156 212.1875 C 129.214844 211.582031 129.589844 211.09375 129.792969 210.730469 C 129.984375 210.367188 130.085938 209.988281 130.089844 209.597656 C 130.085938 209.398438 130.054688 209.222656 129.996094 209.066406 C 129.929688 208.917969 129.847656 208.789062 129.738281 208.683594 C 129.625 208.589844 129.492188 208.519531 129.34375 208.46875 C 129.191406 208.421875 129.027344 208.398438 128.851562 208.394531 C 128.675781 208.398438 128.503906 208.421875 128.328125 208.460938 C 128.148438 208.507812 127.980469 208.558594 127.820312 208.621094 C 127.679688 208.679688 127.546875 208.746094 127.421875 208.820312 C 127.300781 208.902344 127.199219 208.96875 127.121094 209.023438 L 127.066406 209.023438 L 127.066406 207.988281 C 127.265625 207.890625 127.542969 207.792969 127.902344 207.695312 C 128.261719 207.601562 128.597656 207.554688 128.921875 207.550781 C 129.597656 207.554688 130.125 207.734375 130.511719 208.089844 C 130.894531 208.453125 131.085938 208.9375 131.089844 209.546875 C 131.085938 209.832031 131.054688 210.09375 130.988281 210.332031 C 130.917969 210.574219 130.824219 210.796875 130.710938 211 C 130.589844 211.210938 130.445312 211.421875 130.277344 211.625 C 130.105469 211.835938 129.925781 212.039062 129.742188 212.242188 C 129.433594 212.570312 129.09375 212.917969 128.71875 213.273438 C 128.347656 213.628906 128.046875 213.910156 127.824219 214.117188 L 131.386719 214.117188 Z M 99.941406 204.976562 "/>
<path fill-rule="nonzero" fill="rgb(94.117647%, 97.254902%, 100%)" fill-opacity="1" stroke-width="1" stroke-linecap="butt" stroke-linejoin="miter" stroke="rgb(70.196078%, 70.196078%, 70.196078%)" stroke-opacity="1" stroke-miterlimit="4" d="M 69.632588 -53.41365 C 69.632588 -43.472937 61.572656 -35.416924 51.631943 -35.416924 C 41.691231 -35.416924 33.631299 -43.472937 33.631299 -53.41365 C 33.631299 -63.358281 41.691231 -71.414294 51.631943 -71.414294 C 61.572656 -71.414294 69.632588 -63.358281 69.632588 -53.41365 Z M 69.632588 -53.41365 " transform="matrix(0.996926, 0, 0, 0.996926, 3.987704, 376.589306)"/>
<path fill-rule="nonzero" fill="rgb(0%, 0%, 0%)" fill-opacity="1" d="M 42.785156 326.328125 L 39.96875 326.328125 L 39.96875 325.585938 L 40.898438 325.585938 L 40.898438 319.820312 L 39.96875 319.820312 L 39.96875 319.078125 L 42.785156 319.078125 L 42.785156 319.820312 L 41.859375 319.820312 L 41.859375 325.585938 L 42.785156 325.585938 Z M 45.273438 326.457031 C 44.910156 326.453125 44.570312 326.40625 44.253906 326.316406 C 43.933594 326.21875 43.675781 326.113281 43.46875 326 L 43.46875 324.972656 L 43.515625 324.972656 C 43.59375 325.035156 43.683594 325.105469 43.789062 325.175781 C 43.890625 325.253906 44.03125 325.332031 44.210938 325.410156 C 44.363281 325.484375 44.535156 325.546875 44.726562 325.601562 C 44.910156 325.65625 45.101562 325.683594 45.304688 325.683594 C 45.449219 325.683594 45.605469 325.667969 45.773438 325.632812 C 45.9375 325.601562 46.0625 325.558594 46.144531 325.503906 C 46.253906 325.429688 46.335938 325.351562 46.386719 325.265625 C 46.4375 325.183594 46.460938 325.058594 46.464844 324.886719 C 46.460938 324.671875 46.402344 324.507812 46.285156 324.394531 C 46.167969 324.285156 45.957031 324.191406 45.65625 324.113281 C 45.535156 324.085938 45.382812 324.050781 45.195312 324.011719 C 45.007812 323.972656 44.835938 323.933594 44.679688 323.886719 C 44.257812 323.773438 43.957031 323.585938 43.769531 323.332031 C 43.585938 323.082031 43.492188 322.777344 43.492188 322.417969 C 43.492188 321.933594 43.675781 321.53125 44.042969 321.222656 C 44.414062 320.914062 44.90625 320.761719 45.519531 320.757812 C 45.820312 320.761719 46.125 320.796875 46.429688 320.871094 C 46.730469 320.949219 46.988281 321.042969 47.199219 321.152344 L 47.199219 322.128906 L 47.152344 322.128906 C 46.914062 321.945312 46.652344 321.800781 46.367188 321.691406 C 46.082031 321.589844 45.792969 321.535156 45.5 321.53125 C 45.195312 321.535156 44.941406 321.597656 44.738281 321.722656 C 44.527344 321.847656 44.425781 322.039062 44.425781 322.296875 C 44.425781 322.523438 44.484375 322.691406 44.609375 322.804688 C 44.730469 322.917969 44.929688 323.007812 45.203125 323.078125 C 45.335938 323.117188 45.488281 323.152344 45.65625 323.183594 C 45.824219 323.21875 46 323.261719 46.1875 323.304688 C 46.585938 323.40625 46.890625 323.570312 47.097656 323.804688 C 47.296875 324.035156 47.398438 324.355469 47.402344 324.761719 C 47.398438 324.996094 47.351562 325.214844 47.261719 325.425781 C 47.164062 325.636719 47.03125 325.816406 46.855469 325.960938 C 46.660156 326.128906 46.4375 326.25 46.195312 326.332031 C 45.949219 326.410156 45.640625 326.453125 45.273438 326.457031 Z M 49.722656 326.457031 C 49.355469 326.453125 49.015625 326.40625 48.703125 326.316406 C 48.382812 326.21875 48.121094 326.113281 47.914062 326 L 47.914062 324.972656 L 47.960938 324.972656 C 48.039062 325.035156 48.128906 325.105469 48.238281 325.175781 C 48.339844 325.253906 48.480469 325.332031 48.660156 325.410156 C 48.808594 325.484375 48.980469 325.546875 49.171875 325.601562 C 49.355469 325.65625 49.550781 325.683594 49.753906 325.683594 C 49.898438 325.683594 50.050781 325.667969 50.21875 325.632812 C 50.382812 325.601562 50.507812 325.558594 50.589844 325.503906 C 50.703125 325.429688 50.785156 325.351562 50.835938 325.265625 C 50.886719 325.183594 50.910156 325.058594 50.914062 324.886719 C 50.910156 324.671875 50.851562 324.507812 50.734375 324.394531 C 50.613281 324.285156 50.402344 324.191406 50.101562 324.113281 C 49.984375 324.085938 49.832031 324.050781 49.644531 324.011719 C 49.457031 323.972656 49.28125 323.933594 49.125 323.886719 C 48.707031 323.773438 48.40625 323.585938 48.21875 323.332031 C 48.03125 323.082031 47.9375 322.777344 47.9375 322.417969 C 47.9375 321.933594 48.121094 321.53125 48.492188 321.222656 C 48.859375 320.914062 49.351562 320.761719 49.96875 320.757812 C 50.265625 320.761719 50.570312 320.796875 50.878906 320.871094 C 51.179688 320.949219 51.433594 321.042969 51.644531 321.152344 L 51.644531 322.128906 L 51.597656 322.128906 C 51.359375 321.945312 51.101562 321.800781 50.816406 321.691406 C 50.527344 321.589844 50.238281 321.535156 49.949219 321.53125 C 49.644531 321.535156 49.386719 321.597656 49.183594 321.722656 C 48.972656 321.847656 48.871094 322.039062 48.871094 322.296875 C 48.871094 322.523438 48.929688 322.691406 49.054688 322.804688 C 49.175781 322.917969 49.375 323.007812 49.652344 323.078125 C 49.785156 323.117188 49.9375 323.152344 50.101562 323.183594 C 50.269531 323.21875 50.445312 323.261719 50.632812 323.304688 C 51.035156 323.40625 51.335938 323.570312 51.542969 323.804688 C 51.742188 324.035156 51.84375 324.355469 51.847656 324.761719 C 51.84375 324.996094 51.796875 325.214844 51.707031 325.425781 C 51.609375 325.636719 51.476562 325.816406 51.304688 325.960938 C 51.109375 326.128906 50.886719 326.25 50.640625 326.332031 C 50.394531 326.410156 50.085938 326.453125 49.722656 326.457031 Z M 56.9375 326.328125 L 56.019531 326.328125 L 56.019531 325.722656 C 55.734375 325.972656 55.46875 326.160156 55.214844 326.289062 C 54.964844 326.414062 54.679688 326.476562 54.371094 326.476562 C 54.128906 326.476562 53.90625 326.4375 53.703125 326.363281 C 53.488281 326.285156 53.304688 326.164062 53.152344 325.992188 C 52.992188 325.828125 52.871094 325.613281 52.789062 325.351562 C 52.699219 325.101562 52.65625 324.789062 52.660156 324.417969 L 52.660156 320.890625 L 53.578125 320.890625 L 53.578125 323.984375 C 53.574219 324.277344 53.585938 324.515625 53.609375 324.703125 C 53.628906 324.894531 53.675781 325.0625 53.753906 325.199219 C 53.824219 325.34375 53.921875 325.445312 54.054688 325.507812 C 54.179688 325.574219 54.367188 325.609375 54.609375 325.605469 C 54.832031 325.609375 55.070312 325.546875 55.320312 325.417969 C 55.574219 325.292969 55.804688 325.132812 56.019531 324.949219 L 56.019531 320.890625 L 56.9375 320.890625 Z M 60.617188 326.449219 C 59.746094 326.445312 59.074219 326.207031 58.601562 325.71875 C 58.121094 325.230469 57.878906 324.539062 57.882812 323.640625 C 57.878906 322.753906 58.113281 322.050781 58.578125 321.523438 C 59.039062 321.003906 59.648438 320.742188 60.398438 320.738281 C 60.734375 320.742188 61.03125 320.792969 61.296875 320.886719 C 61.550781 320.988281 61.78125 321.140625 61.976562 321.339844 C 62.171875 321.550781 62.320312 321.804688 62.425781 322.105469 C 62.527344 322.40625 62.578125 322.769531 62.582031 323.207031 L 62.582031 323.703125 L 58.8125 323.703125 C 58.8125 324.339844 58.96875 324.824219 59.289062 325.152344 C 59.609375 325.492188 60.050781 325.660156 60.609375 325.65625 C 60.808594 325.660156 61.003906 325.636719 61.199219 325.585938 C 61.390625 325.542969 61.5625 325.484375 61.722656 325.410156 C 61.886719 325.335938 62.027344 325.261719 62.140625 325.191406 C 62.253906 325.121094 62.347656 325.0625 62.425781 325 L 62.480469 325 L 62.480469 325.996094 C 62.371094 326.039062 62.234375 326.09375 62.078125 326.15625 C 61.914062 326.222656 61.773438 326.269531 61.648438 326.304688 C 61.46875 326.351562 61.308594 326.382812 61.164062 326.410156 C 61.019531 326.433594 60.835938 326.445312 60.617188 326.449219 Z M 61.6875 323 C 61.679688 322.757812 61.652344 322.546875 61.601562 322.367188 C 61.546875 322.1875 61.46875 322.035156 61.378906 321.910156 C 61.269531 321.777344 61.132812 321.675781 60.964844 321.601562 C 60.796875 321.53125 60.589844 321.496094 60.34375 321.492188 C 60.101562 321.496094 59.894531 321.53125 59.722656 321.601562 C 59.550781 321.675781 59.394531 321.78125 59.261719 321.921875 C 59.121094 322.066406 59.015625 322.226562 58.945312 322.398438 C 58.875 322.574219 58.832031 322.773438 58.8125 323 Z M 68.449219 319.769531 C 68.269531 319.773438 68.089844 319.796875 67.917969 319.835938 C 67.742188 319.882812 67.570312 319.9375 67.40625 320 C 67.246094 320.066406 67.109375 320.132812 66.996094 320.203125 C 66.878906 320.273438 66.777344 320.339844 66.691406 320.402344 L 66.628906 320.402344 L 66.628906 319.375 C 66.839844 319.261719 67.128906 319.160156 67.492188 319.066406 C 67.847656 318.976562 68.191406 318.929688 68.527344 318.925781 C 68.851562 318.929688 69.136719 318.964844 69.382812 319.027344 C 69.628906 319.097656 69.851562 319.199219 70.050781 319.335938 C 70.261719 319.496094 70.417969 319.683594 70.53125 319.902344 C 70.636719 320.121094 70.691406 320.382812 70.695312 320.675781 C 70.691406 321.078125 70.558594 321.425781 70.304688 321.726562 C 70.039062 322.03125 69.722656 322.222656 69.355469 322.300781 L 69.355469 322.371094 C 69.503906 322.402344 69.667969 322.453125 69.847656 322.523438 C 70.019531 322.59375 70.183594 322.699219 70.328125 322.835938 C 70.476562 322.980469 70.597656 323.160156 70.695312 323.375 C 70.785156 323.597656 70.832031 323.859375 70.835938 324.175781 C 70.832031 324.503906 70.777344 324.808594 70.667969 325.082031 C 70.554688 325.355469 70.394531 325.597656 70.199219 325.804688 C 69.980469 326.03125 69.726562 326.199219 69.429688 326.308594 C 69.128906 326.421875 68.792969 326.476562 68.414062 326.476562 C 68.046875 326.476562 67.6875 326.429688 67.332031 326.347656 C 66.972656 326.257812 66.671875 326.15625 66.433594 326.03125 L 66.433594 325.003906 L 66.503906 325.003906 C 66.703125 325.152344 66.976562 325.296875 67.324219 325.429688 C 67.664062 325.570312 68.007812 325.636719 68.355469 325.632812 C 68.550781 325.636719 68.75 325.605469 68.953125 325.539062 C 69.148438 325.480469 69.3125 325.378906 69.449219 325.230469 C 69.574219 325.09375 69.675781 324.933594 69.746094 324.761719 C 69.816406 324.589844 69.851562 324.371094 69.851562 324.105469 C 69.851562 323.84375 69.8125 323.632812 69.734375 323.460938 C 69.65625 323.292969 69.550781 323.160156 69.417969 323.058594 C 69.277344 322.964844 69.113281 322.898438 68.933594 322.859375 C 68.742188 322.824219 68.539062 322.804688 68.328125 322.800781 L 67.910156 322.800781 L 67.910156 321.996094 L 68.234375 321.996094 C 68.667969 322 69.027344 321.894531 69.300781 321.683594 C 69.574219 321.476562 69.710938 321.175781 69.714844 320.777344 C 69.710938 320.597656 69.675781 320.441406 69.605469 320.308594 C 69.535156 320.175781 69.441406 320.070312 69.332031 319.996094 C 69.207031 319.910156 69.070312 319.851562 68.925781 319.820312 C 68.773438 319.789062 68.617188 319.773438 68.449219 319.769531 Z M 39.519531 316.351562 "/>
<path fill-rule="nonzero" fill="rgb(94.117647%, 97.254902%, 100%)" fill-opacity="1" stroke-width="1" stroke-linecap="butt" stroke-linejoin="miter" stroke="rgb(70.196078%, 70.196078%, 70.196078%)" stroke-opacity="1" stroke-miterlimit="4" d="M 68.296449 -279.299401 C 68.296449 -269.358688 60.236518 -261.298757 50.295805 -261.298757 C 40.355092 -261.298757 32.295161 -269.358688 32.295161 -279.299401 C 32.295161 -289.240114 40.355092 -297.300045 50.295805 -297.300045 C 60.236518 -297.300045 68.296449 -289.240114 68.296449 -279.299401 Z M 68.296449 -279.299401 " transform="matrix(0.996926, 0, 0, 0.996926, 3.987704, 376.589306)"/>
<path fill-rule="nonzero" fill="rgb(0%, 0%, 0%)" fill-opacity="1" d="M 41.453125 101.136719 L 38.640625 101.136719 L 38.640625 100.398438 L 39.566406 100.398438 L 39.566406 94.628906 L 38.640625 94.628906 L 38.640625 93.890625 L 41.453125 93.890625 L 41.453125 94.628906 L 40.527344 94.628906 L 40.527344 100.398438 L 41.453125 100.398438 Z M 43.941406 101.269531 C 43.578125 101.265625 43.238281 101.21875 42.921875 101.125 C 42.601562 101.027344 42.34375 100.921875 42.136719 100.8125 L 42.136719 99.78125 L 42.183594 99.78125 C 42.261719 99.84375 42.351562 99.914062 42.457031 99.988281 C 42.558594 100.066406 42.699219 100.144531 42.878906 100.222656 C 43.03125 100.296875 43.203125 100.359375 43.394531 100.414062 C 43.578125 100.46875 43.769531 100.496094 43.972656 100.496094 C 44.117188 100.496094 44.273438 100.480469 44.441406 100.445312 C 44.605469 100.414062 44.730469 100.371094 44.8125 100.316406 C 44.925781 100.242188 45.003906 100.164062 45.054688 100.078125 C 45.105469 99.996094 45.128906 99.867188 45.132812 99.695312 C 45.128906 99.484375 45.070312 99.320312 44.957031 99.207031 C 44.835938 99.097656 44.625 99.003906 44.324219 98.925781 C 44.203125 98.898438 44.050781 98.863281 43.863281 98.824219 C 43.679688 98.785156 43.503906 98.746094 43.347656 98.699219 C 42.925781 98.582031 42.625 98.394531 42.441406 98.144531 C 42.253906 97.894531 42.160156 97.589844 42.160156 97.226562 C 42.160156 96.746094 42.34375 96.34375 42.710938 96.03125 C 43.082031 95.726562 43.574219 95.574219 44.1875 95.570312 C 44.488281 95.574219 44.792969 95.609375 45.097656 95.683594 C 45.398438 95.761719 45.65625 95.851562 45.867188 95.960938 L 45.867188 96.941406 L 45.820312 96.941406 C 45.582031 96.757812 45.320312 96.613281 45.035156 96.503906 C 44.75 96.402344 44.460938 96.347656 44.167969 96.34375 C 43.863281 96.347656 43.609375 96.410156 43.40625 96.535156 C 43.195312 96.660156 43.09375 96.851562 43.09375 97.105469 C 43.09375 97.332031 43.152344 97.503906 43.277344 97.617188 C 43.398438 97.730469 43.597656 97.820312 43.871094 97.890625 C 44.003906 97.929688 44.15625 97.964844 44.324219 97.996094 C 44.492188 98.03125 44.667969 98.074219 44.855469 98.117188 C 45.253906 98.21875 45.558594 98.378906 45.765625 98.613281 C 45.964844 98.847656 46.066406 99.167969 46.070312 99.574219 C 46.066406 99.804688 46.019531 100.027344 45.929688 100.238281 C 45.832031 100.449219 45.699219 100.628906 45.523438 100.773438 C 45.328125 100.9375 45.105469 101.058594 44.863281 101.140625 C 44.617188 101.222656 44.308594 101.265625 43.941406 101.269531 Z M 48.390625 101.269531 C 48.023438 101.265625 47.683594 101.21875 47.371094 101.125 C 47.050781 101.027344 46.789062 100.921875 46.582031 100.8125 L 46.582031 99.78125 L 46.628906 99.78125 C 46.707031 99.84375 46.796875 99.914062 46.90625 99.988281 C 47.007812 100.066406 47.148438 100.144531 47.328125 100.222656 C 47.480469 100.296875 47.648438 100.359375 47.839844 100.414062 C 48.023438 100.46875 48.21875 100.496094 48.421875 100.496094 C 48.566406 100.496094 48.722656 100.480469 48.886719 100.445312 C 49.050781 100.414062 49.175781 100.371094 49.257812 100.316406 C 49.371094 100.242188 49.453125 100.164062 49.503906 100.078125 C 49.554688 99.996094 49.578125 99.867188 49.582031 99.695312 C 49.578125 99.484375 49.519531 99.320312 49.402344 99.207031 C 49.28125 99.097656 49.070312 99.003906 48.773438 98.925781 C 48.652344 98.898438 48.5 98.863281 48.3125 98.824219 C 48.125 98.785156 47.949219 98.746094 47.792969 98.699219 C 47.375 98.582031 47.074219 98.394531 46.886719 98.144531 C 46.699219 97.894531 46.605469 97.589844 46.605469 97.226562 C 46.605469 96.746094 46.789062 96.34375 47.160156 96.03125 C 47.527344 95.726562 48.019531 95.574219 48.636719 95.570312 C 48.933594 95.574219 49.238281 95.609375 49.546875 95.683594 C 49.847656 95.761719 50.101562 95.851562 50.3125 95.960938 L 50.3125 96.941406 L 50.265625 96.941406 C 50.03125 96.757812 49.769531 96.613281 49.484375 96.503906 C 49.195312 96.402344 48.90625 96.347656 48.617188 96.34375 C 48.3125 96.347656 48.054688 96.410156 47.851562 96.535156 C 47.640625 96.660156 47.539062 96.851562 47.539062 97.105469 C 47.539062 97.332031 47.597656 97.503906 47.722656 97.617188 C 47.84375 97.730469 48.042969 97.820312 48.320312 97.890625 C 48.453125 97.929688 48.605469 97.964844 48.773438 97.996094 C 48.9375 98.03125 49.113281 98.074219 49.300781 98.117188 C 49.703125 98.21875 50.007812 98.378906 50.210938 98.613281 C 50.410156 98.847656 50.511719 99.167969 50.515625 99.574219 C 50.511719 99.804688 50.464844 100.027344 50.375 100.238281 C 50.277344 100.449219 50.144531 100.628906 49.972656 100.773438 C 49.777344 100.9375 49.554688 101.058594 49.308594 101.140625 C 49.0625 101.222656 48.757812 101.265625 48.390625 101.269531 Z M 55.605469 101.136719 L 54.6875 101.136719 L 54.6875 100.535156 C 54.402344 100.785156 54.136719 100.96875 53.882812 101.097656 C 53.632812 101.226562 53.347656 101.289062 53.039062 101.289062 C 52.796875 101.289062 52.574219 101.25 52.371094 101.171875 C 52.15625 101.09375 51.972656 100.972656 51.820312 100.804688 C 51.660156 100.640625 51.539062 100.425781 51.457031 100.164062 C 51.367188 99.910156 51.324219 99.601562 51.328125 99.230469 L 51.328125 95.703125 L 52.246094 95.703125 L 52.246094 98.796875 C 52.242188 99.089844 52.253906 99.328125 52.277344 99.515625 C 52.296875 99.703125 52.34375 99.871094 52.421875 100.011719 C 52.492188 100.15625 52.589844 100.257812 52.722656 100.320312 C 52.847656 100.386719 53.035156 100.421875 53.277344 100.417969 C 53.5 100.421875 53.738281 100.359375 53.988281 100.230469 C 54.242188 100.105469 54.472656 99.945312 54.6875 99.757812 L 54.6875 95.703125 L 55.605469 95.703125 Z M 59.285156 101.261719 C 58.414062 101.257812 57.742188 101.015625 57.269531 100.53125 C 56.789062 100.042969 56.546875 99.351562 56.550781 98.449219 C 56.546875 97.566406 56.78125 96.863281 57.246094 96.335938 C 57.707031 95.8125 58.316406 95.554688 59.066406 95.550781 C 59.402344 95.554688 59.699219 95.605469 59.964844 95.699219 C 60.21875 95.800781 60.449219 95.949219 60.644531 96.152344 C 60.839844 96.363281 60.988281 96.617188 61.09375 96.917969 C 61.195312 97.214844 61.246094 97.582031 61.25 98.019531 L 61.25 98.511719 L 57.480469 98.511719 C 57.480469 99.152344 57.640625 99.632812 57.957031 99.964844 C 58.277344 100.304688 58.71875 100.472656 59.277344 100.46875 C 59.476562 100.472656 59.671875 100.449219 59.867188 100.398438 C 60.058594 100.355469 60.230469 100.296875 60.390625 100.222656 C 60.554688 100.148438 60.695312 100.074219 60.808594 100.003906 C 60.921875 99.933594 61.015625 99.871094 61.09375 99.808594 L 61.148438 99.808594 L 61.148438 100.808594 C 61.039062 100.851562 60.902344 100.902344 60.746094 100.964844 C 60.582031 101.03125 60.441406 101.078125 60.316406 101.113281 C 60.140625 101.160156 59.976562 101.195312 59.832031 101.222656 C 59.6875 101.246094 59.503906 101.257812 59.285156 101.261719 Z M 60.355469 97.8125 C 60.347656 97.570312 60.320312 97.355469 60.269531 97.175781 C 60.214844 97 60.140625 96.847656 60.046875 96.722656 C 59.9375 96.589844 59.800781 96.488281 59.632812 96.414062 C 59.464844 96.34375 59.257812 96.308594 59.011719 96.304688 C 58.769531 96.308594 58.5625 96.34375 58.390625 96.414062 C 58.21875 96.488281 58.0625 96.59375 57.929688 96.734375 C 57.789062 96.878906 57.683594 97.039062 57.617188 97.207031 C 57.542969 97.382812 57.5 97.585938 57.480469 97.8125 Z M 69.824219 98.644531 L 68.960938 98.644531 L 68.960938 101.136719 L 68.023438 101.136719 L 68.023438 98.644531 L 64.824219 98.644531 L 64.824219 97.625 L 68.0625 93.890625 L 68.960938 93.890625 L 68.960938 97.867188 L 69.824219 97.867188 Z M 68.023438 97.867188 L 68.023438 95.03125 L 65.582031 97.867188 Z M 38.1875 91.164062 "/>
<path fill-rule="nonzero" fill="rgb(94.117647%, 97.254902%, 100%)" fill-opacity="1" stroke-width="1" stroke-linecap="butt" stroke-linejoin="miter" stroke="rgb(70.196078%, 70.196078%, 70.196078%)" stroke-opacity="1" stroke-miterlimit="4" d="M 187.961159 -252.368964 C 187.961159 -242.428251 179.901228 -234.36832 169.960515 -234.36832 C 160.019802 -234.36832 151.95987 -242.428251 151.95987 -252.368964 C 151.95987 -262.309677 160.019802 -270.369608 169.960515 -270.369608 C 179.901228 -270.369608 187.961159 -262.309677 187.961159 -252.368964 Z M 187.961159 -252.368964 " transform="matrix(0.996926, 0, 0, 0.996926, 3.987704, 376.589306)"/>
<path fill-rule="nonzero" fill="rgb(0%, 0%, 0%)" fill-opacity="1" d="M 160.75 127.984375 L 157.933594 127.984375 L 157.933594 127.246094 L 158.863281 127.246094 L 158.863281 121.476562 L 157.933594 121.476562 L 157.933594 120.738281 L 160.75 120.738281 L 160.75 121.476562 L 159.824219 121.476562 L 159.824219 127.246094 L 160.75 127.246094 Z M 163.238281 128.117188 C 162.871094 128.113281 162.535156 128.066406 162.21875 127.972656 C 161.898438 127.875 161.636719 127.769531 161.433594 127.65625 L 161.433594 126.628906 L 161.480469 126.628906 C 161.554688 126.691406 161.644531 126.761719 161.753906 126.835938 C 161.855469 126.914062 161.996094 126.992188 162.175781 127.070312 C 162.328125 127.144531 162.5 127.207031 162.691406 127.261719 C 162.871094 127.316406 163.066406 127.34375 163.269531 127.34375 C 163.414062 127.34375 163.570312 127.328125 163.738281 127.292969 C 163.902344 127.261719 164.027344 127.21875 164.105469 127.164062 C 164.21875 127.089844 164.300781 127.011719 164.351562 126.925781 C 164.402344 126.84375 164.425781 126.714844 164.429688 126.542969 C 164.425781 126.328125 164.367188 126.167969 164.25 126.054688 C 164.128906 125.945312 163.921875 125.851562 163.621094 125.773438 C 163.5 125.746094 163.347656 125.710938 163.160156 125.671875 C 162.972656 125.632812 162.796875 125.59375 162.644531 125.546875 C 162.222656 125.429688 161.921875 125.242188 161.734375 124.988281 C 161.546875 124.742188 161.457031 124.4375 161.457031 124.074219 C 161.457031 123.59375 161.636719 123.191406 162.007812 122.878906 C 162.378906 122.570312 162.867188 122.417969 163.484375 122.414062 C 163.785156 122.417969 164.085938 122.453125 164.394531 122.527344 C 164.695312 122.605469 164.953125 122.699219 165.164062 122.808594 L 165.164062 123.785156 L 165.117188 123.785156 C 164.878906 123.605469 164.617188 123.460938 164.332031 123.351562 C 164.046875 123.25 163.757812 123.195312 163.464844 123.191406 C 163.160156 123.195312 162.902344 123.257812 162.703125 123.382812 C 162.492188 123.507812 162.390625 123.695312 162.390625 123.953125 C 162.390625 124.179688 162.449219 124.351562 162.574219 124.464844 C 162.695312 124.578125 162.890625 124.667969 163.167969 124.738281 C 163.300781 124.777344 163.453125 124.8125 163.621094 124.84375 C 163.789062 124.878906 163.964844 124.921875 164.148438 124.960938 C 164.550781 125.0625 164.855469 125.226562 165.0625 125.460938 C 165.261719 125.695312 165.359375 126.015625 165.363281 126.417969 C 165.359375 126.652344 165.316406 126.875 165.226562 127.085938 C 165.128906 127.296875 164.996094 127.472656 164.820312 127.617188 C 164.625 127.785156 164.402344 127.90625 164.15625 127.988281 C 163.914062 128.070312 163.605469 128.113281 163.238281 128.117188 Z M 167.6875 128.117188 C 167.320312 128.113281 166.980469 128.066406 166.664062 127.972656 C 166.347656 127.875 166.085938 127.769531 165.878906 127.65625 L 165.878906 126.628906 L 165.925781 126.628906 C 166.003906 126.691406 166.09375 126.761719 166.203125 126.835938 C 166.304688 126.914062 166.445312 126.992188 166.621094 127.070312 C 166.773438 127.144531 166.945312 127.207031 167.136719 127.261719 C 167.320312 127.316406 167.515625 127.34375 167.71875 127.34375 C 167.863281 127.34375 168.015625 127.328125 168.183594 127.292969 C 168.347656 127.261719 168.472656 127.21875 168.554688 127.164062 C 168.667969 127.089844 168.75 127.011719 168.800781 126.925781 C 168.851562 126.84375 168.875 126.714844 168.878906 126.542969 C 168.875 126.328125 168.816406 126.167969 168.699219 126.054688 C 168.578125 125.945312 168.367188 125.851562 168.066406 125.773438 C 167.945312 125.746094 167.796875 125.710938 167.609375 125.671875 C 167.421875 125.632812 167.246094 125.59375 167.089844 125.546875 C 166.667969 125.429688 166.371094 125.242188 166.183594 124.988281 C 165.996094 124.742188 165.902344 124.4375 165.902344 124.074219 C 165.902344 123.59375 166.085938 123.191406 166.457031 122.878906 C 166.824219 122.570312 167.316406 122.417969 167.929688 122.414062 C 168.230469 122.417969 168.535156 122.453125 168.84375 122.527344 C 169.140625 122.605469 169.398438 122.699219 169.609375 122.808594 L 169.609375 123.785156 L 169.5625 123.785156 C 169.324219 123.605469 169.066406 123.460938 168.78125 123.351562 C 168.492188 123.25 168.203125 123.195312 167.910156 123.191406 C 167.609375 123.195312 167.351562 123.257812 167.148438 123.382812 C 166.9375 123.507812 166.835938 123.695312 166.835938 123.953125 C 166.835938 124.179688 166.894531 124.351562 167.019531 124.464844 C 167.140625 124.578125 167.339844 124.667969 167.617188 124.738281 C 167.75 124.777344 167.898438 124.8125 168.066406 124.84375 C 168.234375 124.878906 168.410156 124.921875 168.597656 124.960938 C 169 125.0625 169.300781 125.226562 169.507812 125.460938 C 169.707031 125.695312 169.808594 126.015625 169.8125 126.417969 C 169.808594 126.652344 169.761719 126.875 169.671875 127.085938 C 169.574219 127.296875 169.441406 127.472656 169.265625 127.617188 C 169.074219 127.785156 168.851562 127.90625 168.605469 127.988281 C 168.359375 128.070312 168.050781 128.113281 167.6875 128.117188 Z M 174.902344 127.984375 L 173.984375 127.984375 L 173.984375 127.382812 C 173.699219 127.628906 173.433594 127.816406 173.179688 127.945312 C 172.929688 128.074219 172.644531 128.136719 172.335938 128.136719 C 172.09375 128.136719 171.871094 128.097656 171.664062 128.019531 C 171.453125 127.941406 171.269531 127.820312 171.117188 127.648438 C 170.957031 127.484375 170.835938 127.273438 170.753906 127.011719 C 170.664062 126.757812 170.621094 126.445312 170.625 126.078125 L 170.625 122.546875 L 171.542969 122.546875 L 171.542969 125.644531 C 171.539062 125.9375 171.550781 126.175781 171.574219 126.359375 C 171.59375 126.550781 171.640625 126.71875 171.714844 126.859375 C 171.785156 127.003906 171.886719 127.105469 172.019531 127.167969 C 172.144531 127.234375 172.332031 127.269531 172.574219 127.265625 C 172.796875 127.269531 173.03125 127.207031 173.285156 127.078125 C 173.539062 126.953125 173.769531 126.792969 173.984375 126.605469 L 173.984375 122.546875 L 174.902344 122.546875 Z M 178.582031 128.109375 C 177.710938 128.105469 177.039062 127.863281 176.566406 127.378906 C 176.085938 126.890625 175.84375 126.199219 175.847656 125.296875 C 175.84375 124.414062 176.078125 123.707031 176.542969 123.183594 C 177.003906 122.660156 177.613281 122.402344 178.363281 122.398438 C 178.699219 122.402344 178.996094 122.449219 179.261719 122.542969 C 179.515625 122.644531 179.746094 122.796875 179.941406 123 C 180.136719 123.210938 180.285156 123.464844 180.390625 123.761719 C 180.492188 124.0625 180.539062 124.429688 180.542969 124.867188 L 180.542969 125.359375 L 176.773438 125.359375 C 176.773438 126 176.933594 126.480469 177.253906 126.8125 C 177.574219 127.152344 178.011719 127.320312 178.574219 127.316406 C 178.773438 127.320312 178.96875 127.296875 179.164062 127.246094 C 179.351562 127.203125 179.527344 127.144531 179.6875 127.070312 C 179.851562 126.996094 179.992188 126.921875 180.105469 126.851562 C 180.21875 126.78125 180.3125 126.71875 180.390625 126.65625 L 180.445312 126.65625 L 180.445312 127.652344 C 180.335938 127.695312 180.199219 127.75 180.042969 127.8125 C 179.878906 127.878906 179.738281 127.925781 179.613281 127.960938 C 179.433594 128.007812 179.269531 128.042969 179.128906 128.070312 C 178.984375 128.09375 178.800781 128.105469 178.582031 128.109375 Z M 179.652344 124.660156 C 179.644531 124.417969 179.617188 124.203125 179.566406 124.023438 C 179.511719 123.84375 179.433594 123.691406 179.339844 123.570312 C 179.234375 123.4375 179.097656 123.335938 178.929688 123.261719 C 178.761719 123.191406 178.554688 123.15625 178.308594 123.152344 C 178.0625 123.15625 177.859375 123.191406 177.6875 123.261719 C 177.515625 123.335938 177.359375 123.441406 177.226562 123.582031 C 177.085938 123.722656 176.980469 123.882812 176.910156 124.054688 C 176.835938 124.230469 176.792969 124.433594 176.773438 124.660156 Z M 188.847656 125.679688 C 188.84375 126.03125 188.789062 126.351562 188.679688 126.648438 C 188.566406 126.949219 188.40625 127.207031 188.207031 127.425781 C 188 127.644531 187.746094 127.820312 187.445312 127.945312 C 187.140625 128.074219 186.804688 128.136719 186.425781 128.136719 C 186.078125 128.136719 185.734375 128.097656 185.402344 128.019531 C 185.0625 127.945312 184.769531 127.847656 184.527344 127.71875 L 184.527344 126.695312 L 184.59375 126.695312 C 184.667969 126.753906 184.777344 126.816406 184.917969 126.882812 C 185.058594 126.957031 185.210938 127.023438 185.382812 127.082031 C 185.570312 127.152344 185.742188 127.203125 185.90625 127.238281 C 186.0625 127.277344 186.242188 127.296875 186.441406 127.292969 C 186.632812 127.296875 186.824219 127.261719 187.007812 127.191406 C 187.195312 127.121094 187.355469 127.007812 187.488281 126.851562 C 187.605469 126.710938 187.695312 126.542969 187.761719 126.347656 C 187.824219 126.160156 187.855469 125.933594 187.859375 125.671875 C 187.855469 125.417969 187.820312 125.207031 187.753906 125.039062 C 187.679688 124.878906 187.578125 124.742188 187.449219 124.632812 C 187.304688 124.507812 187.132812 124.421875 186.933594 124.371094 C 186.730469 124.320312 186.503906 124.292969 186.257812 124.292969 C 185.992188 124.292969 185.726562 124.316406 185.464844 124.355469 C 185.191406 124.402344 184.980469 124.441406 184.824219 124.472656 L 184.824219 120.738281 L 188.800781 120.738281 L 188.800781 121.589844 L 185.761719 121.589844 L 185.761719 123.515625 C 185.878906 123.507812 185.996094 123.496094 186.109375 123.488281 C 186.222656 123.480469 186.324219 123.476562 186.421875 123.476562 C 186.789062 123.476562 187.101562 123.507812 187.359375 123.570312 C 187.617188 123.632812 187.863281 123.75 188.101562 123.929688 C 188.335938 124.113281 188.519531 124.34375 188.652344 124.613281 C 188.777344 124.890625 188.84375 125.242188 188.847656 125.679688 Z M 157.484375 118.011719 "/>
<path fill-rule="nonzero" fill="rgb(94.117647%, 97.254902%, 100%)" fill-opacity="1" stroke-width="1" stroke-linecap="butt" stroke-linejoin="miter" stroke="rgb(70.196078%, 70.196078%, 70.196078%)" stroke-opacity="1" stroke-miterlimit="4" d="M 149.240574 -355.322148 C 149.240574 -345.381436 141.180643 -337.321504 131.23993 -337.321504 C 121.299217 -337.321504 113.239286 -345.381436 113.239286 -355.322148 C 113.239286 -365.262861 121.299217 -373.322793 131.23993 -373.322793 C 141.180643 -373.322793 149.240574 -365.262861 149.240574 -355.322148 Z M 149.240574 -355.322148 " transform="matrix(0.996926, 0, 0, 0.996926, 3.987704, 376.589306)"/>
<path fill-rule="nonzero" fill="rgb(0%, 0%, 0%)" fill-opacity="1" d="M 122.152344 25.347656 L 119.335938 25.347656 L 119.335938 24.609375 L 120.261719 24.609375 L 120.261719 18.839844 L 119.335938 18.839844 L 119.335938 18.101562 L 122.152344 18.101562 L 122.152344 18.839844 L 121.222656 18.839844 L 121.222656 24.609375 L 122.152344 24.609375 Z M 124.640625 25.480469 C 124.273438 25.476562 123.933594 25.429688 123.617188 25.335938 C 123.300781 25.238281 123.039062 25.132812 122.832031 25.019531 L 122.832031 23.992188 L 122.878906 23.992188 C 122.957031 24.054688 123.046875 24.125 123.15625 24.199219 C 123.257812 24.277344 123.398438 24.355469 123.574219 24.433594 C 123.726562 24.507812 123.898438 24.570312 124.089844 24.625 C 124.273438 24.679688 124.46875 24.707031 124.671875 24.707031 C 124.8125 24.707031 124.96875 24.691406 125.136719 24.65625 C 125.300781 24.625 125.425781 24.582031 125.507812 24.527344 C 125.621094 24.453125 125.703125 24.375 125.753906 24.289062 C 125.804688 24.207031 125.828125 24.078125 125.832031 23.90625 C 125.828125 23.691406 125.769531 23.53125 125.652344 23.417969 C 125.53125 23.308594 125.320312 23.214844 125.019531 23.136719 C 124.898438 23.109375 124.75 23.074219 124.5625 23.035156 C 124.375 22.996094 124.199219 22.957031 124.042969 22.910156 C 123.621094 22.792969 123.324219 22.605469 123.136719 22.351562 C 122.949219 22.105469 122.855469 21.800781 122.855469 21.4375 C 122.855469 20.957031 123.039062 20.554688 123.410156 20.242188 C 123.777344 19.933594 124.269531 19.785156 124.882812 19.78125 C 125.183594 19.785156 125.488281 19.816406 125.796875 19.890625 C 126.09375 19.96875 126.351562 20.0625 126.5625 20.171875 L 126.5625 21.148438 L 126.515625 21.148438 C 126.277344 20.96875 126.019531 20.824219 125.734375 20.714844 C 125.445312 20.613281 125.15625 20.558594 124.863281 20.554688 C 124.5625 20.558594 124.304688 20.621094 124.101562 20.746094 C 123.890625 20.871094 123.789062 21.058594 123.789062 21.316406 C 123.789062 21.542969 123.847656 21.714844 123.972656 21.828125 C 124.09375 21.941406 124.292969 22.03125 124.570312 22.101562 C 124.703125 22.140625 124.851562 22.175781 125.019531 22.207031 C 125.1875 22.242188 125.363281 22.285156 125.550781 22.324219 C 125.953125 22.425781 126.253906 22.589844 126.460938 22.824219 C 126.660156 23.058594 126.761719 23.378906 126.765625 23.78125 C 126.761719 24.015625 126.714844 24.238281 126.625 24.449219 C 126.527344 24.660156 126.394531 24.839844 126.21875 24.980469 C 126.027344 25.148438 125.804688 25.269531 125.558594 25.351562 C 125.3125 25.433594 125.003906 25.476562 124.640625 25.480469 Z M 129.085938 25.480469 C 128.71875 25.476562 128.382812 25.429688 128.066406 25.335938 C 127.746094 25.238281 127.484375 25.132812 127.28125 25.019531 L 127.28125 23.992188 L 127.324219 23.992188 C 127.402344 24.054688 127.492188 24.125 127.601562 24.199219 C 127.703125 24.277344 127.84375 24.355469 128.023438 24.433594 C 128.175781 24.507812 128.347656 24.570312 128.539062 24.625 C 128.71875 24.679688 128.914062 24.707031 129.117188 24.707031 C 129.261719 24.707031 129.417969 24.691406 129.585938 24.65625 C 129.75 24.625 129.871094 24.582031 129.953125 24.527344 C 130.066406 24.453125 130.148438 24.375 130.199219 24.289062 C 130.25 24.207031 130.273438 24.078125 130.277344 23.90625 C 130.273438 23.691406 130.214844 23.53125 130.097656 23.417969 C 129.976562 23.308594 129.769531 23.214844 129.46875 23.136719 C 129.347656 23.109375 129.195312 23.074219 129.007812 23.035156 C 128.820312 22.996094 128.644531 22.957031 128.492188 22.910156 C 128.070312 22.792969 127.769531 22.605469 127.582031 22.351562 C 127.394531 22.105469 127.304688 21.800781 127.304688 21.4375 C 127.304688 20.957031 127.484375 20.554688 127.855469 20.242188 C 128.226562 19.933594 128.714844 19.785156 129.332031 19.78125 C 129.632812 19.785156 129.933594 19.816406 130.242188 19.890625 C 130.542969 19.96875 130.800781 20.0625 131.011719 20.171875 L 131.011719 21.148438 L 130.964844 21.148438 C 130.726562 20.96875 130.464844 20.824219 130.179688 20.714844 C 129.890625 20.613281 129.605469 20.558594 129.3125 20.554688 C 129.007812 20.558594 128.75 20.621094 128.550781 20.746094 C 128.339844 20.871094 128.238281 21.058594 128.238281 21.316406 C 128.238281 21.542969 128.296875 21.714844 128.421875 21.828125 C 128.542969 21.941406 128.738281 22.03125 129.015625 22.101562 C 129.148438 22.140625 129.300781 22.175781 129.46875 22.207031 C 129.636719 22.242188 129.8125 22.285156 129.996094 22.324219 C 130.398438 22.425781 130.703125 22.589844 130.910156 22.824219 C 131.109375 23.058594 131.207031 23.378906 131.210938 23.78125 C 131.207031 24.015625 131.160156 24.238281 131.074219 24.449219 C 130.976562 24.660156 130.84375 24.839844 130.667969 24.980469 C 130.472656 25.148438 130.25 25.269531 130.003906 25.351562 C 129.761719 25.433594 129.453125 25.476562 129.085938 25.480469 Z M 136.300781 25.347656 L 135.382812 25.347656 L 135.382812 24.746094 C 135.097656 24.992188 134.835938 25.179688 134.582031 25.308594 C 134.328125 25.4375 134.042969 25.5 133.734375 25.5 C 133.496094 25.5 133.273438 25.460938 133.066406 25.382812 C 132.851562 25.304688 132.667969 25.183594 132.515625 25.011719 C 132.359375 24.851562 132.238281 24.636719 132.15625 24.375 C 132.066406 24.121094 132.023438 23.808594 132.027344 23.441406 L 132.027344 19.910156 L 132.941406 19.910156 L 132.941406 23.007812 C 132.9375 23.300781 132.949219 23.539062 132.972656 23.722656 C 132.992188 23.914062 133.039062 24.082031 133.117188 24.222656 C 133.1875 24.367188 133.289062 24.46875 133.421875 24.53125 C 133.546875 24.597656 133.730469 24.632812 133.972656 24.628906 C 134.195312 24.632812 134.433594 24.570312 134.6875 24.441406 C 134.9375 24.316406 135.167969 24.15625 135.382812 23.96875 L 135.382812 19.910156 L 136.300781 19.910156 Z M 139.984375 25.472656 C 139.109375 25.46875 138.441406 25.226562 137.964844 24.742188 C 137.484375 24.253906 137.246094 23.5625 137.25 22.660156 C 137.246094 21.777344 137.476562 21.070312 137.941406 20.546875 C 138.40625 20.023438 139.011719 19.765625 139.765625 19.761719 C 140.097656 19.765625 140.394531 19.8125 140.660156 19.90625 C 140.917969 20.007812 141.148438 20.160156 141.339844 20.363281 C 141.535156 20.574219 141.683594 20.828125 141.789062 21.125 C 141.890625 21.425781 141.941406 21.792969 141.945312 22.230469 L 141.945312 22.722656 L 138.175781 22.722656 C 138.175781 23.363281 138.335938 23.84375 138.65625 24.175781 C 138.972656 24.515625 139.414062 24.683594 139.976562 24.679688 C 140.171875 24.683594 140.367188 24.660156 140.5625 24.609375 C 140.753906 24.566406 140.929688 24.507812 141.089844 24.433594 C 141.253906 24.359375 141.390625 24.285156 141.503906 24.214844 C 141.617188 24.144531 141.710938 24.082031 141.789062 24.019531 L 141.84375 24.019531 L 141.84375 25.015625 C 141.734375 25.058594 141.597656 25.113281 141.441406 25.175781 C 141.277344 25.242188 141.140625 25.289062 141.015625 25.324219 C 140.835938 25.371094 140.671875 25.40625 140.527344 25.433594 C 140.382812 25.457031 140.199219 25.46875 139.984375 25.472656 Z M 141.054688 22.023438 C 141.046875 21.78125 141.019531 21.566406 140.96875 21.386719 C 140.914062 21.207031 140.835938 21.054688 140.742188 20.933594 C 140.632812 20.800781 140.496094 20.699219 140.328125 20.625 C 140.160156 20.554688 139.957031 20.519531 139.710938 20.515625 C 139.464844 20.519531 139.257812 20.554688 139.085938 20.625 C 138.914062 20.699219 138.757812 20.804688 138.628906 20.945312 C 138.488281 21.085938 138.382812 21.246094 138.3125 21.417969 C 138.238281 21.59375 138.195312 21.796875 138.175781 22.023438 Z M 150.441406 22.996094 C 150.441406 23.375 150.378906 23.714844 150.253906 24.027344 C 150.128906 24.34375 149.964844 24.609375 149.761719 24.820312 C 149.539062 25.042969 149.296875 25.214844 149.027344 25.328125 C 148.761719 25.445312 148.460938 25.5 148.136719 25.5 C 147.804688 25.5 147.511719 25.445312 147.246094 25.335938 C 146.976562 25.226562 146.738281 25.0625 146.535156 24.84375 C 146.285156 24.582031 146.089844 24.230469 145.949219 23.789062 C 145.804688 23.351562 145.734375 22.808594 145.738281 22.164062 C 145.734375 21.539062 145.800781 20.972656 145.933594 20.460938 C 146.0625 19.953125 146.261719 19.511719 146.53125 19.132812 C 146.792969 18.765625 147.132812 18.484375 147.550781 18.273438 C 147.960938 18.070312 148.441406 17.964844 148.988281 17.964844 C 149.148438 17.964844 149.300781 17.972656 149.441406 17.988281 C 149.578125 18.003906 149.703125 18.03125 149.8125 18.066406 L 149.8125 18.996094 L 149.769531 18.996094 C 149.679688 18.949219 149.554688 18.902344 149.390625 18.863281 C 149.222656 18.824219 149.042969 18.804688 148.859375 18.800781 C 148.253906 18.804688 147.765625 19.007812 147.398438 19.414062 C 147.023438 19.816406 146.800781 20.421875 146.734375 21.222656 C 146.960938 21.0625 147.199219 20.941406 147.449219 20.851562 C 147.6875 20.765625 147.957031 20.722656 148.246094 20.71875 C 148.527344 20.722656 148.773438 20.75 148.984375 20.804688 C 149.195312 20.863281 149.417969 20.980469 149.652344 21.144531 C 149.917969 21.351562 150.117188 21.605469 150.246094 21.914062 C 150.375 22.222656 150.441406 22.582031 150.441406 22.996094 Z M 149.453125 23.035156 C 149.449219 22.738281 149.410156 22.488281 149.335938 22.289062 C 149.253906 22.085938 149.125 21.914062 148.953125 21.769531 C 148.828125 21.667969 148.6875 21.601562 148.527344 21.566406 C 148.363281 21.535156 148.195312 21.515625 148.03125 21.515625 C 147.800781 21.515625 147.585938 21.550781 147.371094 21.621094 C 147.152344 21.691406 146.9375 21.792969 146.734375 21.917969 C 146.726562 21.992188 146.722656 22.058594 146.722656 22.125 C 146.714844 22.195312 146.714844 22.28125 146.71875 22.371094 C 146.714844 22.878906 146.765625 23.285156 146.867188 23.589844 C 146.964844 23.902344 147.085938 24.136719 147.234375 24.292969 C 147.371094 24.449219 147.515625 24.558594 147.664062 24.617188 C 147.808594 24.679688 147.96875 24.707031 148.144531 24.707031 C 148.53125 24.707031 148.847656 24.570312 149.089844 24.289062 C 149.328125 24.011719 149.449219 23.589844 149.453125 23.035156 Z M 118.882812 15.375 "/>
<path fill-rule="nonzero" fill="rgb(94.117647%, 97.254902%, 100%)" fill-opacity="1" stroke-width="1" stroke-linecap="butt" stroke-linejoin="miter" stroke="rgb(70.196078%, 70.196078%, 70.196078%)" stroke-opacity="1" stroke-miterlimit="4" d="M 140.690856 -75.559849 C 140.690856 -65.619137 132.630924 -57.563123 122.690212 -57.563123 C 112.749499 -57.563123 104.689567 -65.619137 104.689567 -75.559849 C 104.689567 -85.50448 112.749499 -93.560494 122.690212 -93.560494 C 132.630924 -93.560494 140.690856 -85.50448 140.690856 -75.559849 Z M 140.690856 -75.559849 " transform="matrix(0.996926, 0, 0, 0.996926, 3.987704, 376.589306)"/>
<path fill-rule="nonzero" fill="rgb(0%, 0%, 0%)" fill-opacity="1" d="M 113.625 304.25 L 110.8125 304.25 L 110.8125 303.511719 L 111.738281 303.511719 L 111.738281 297.742188 L 110.8125 297.742188 L 110.8125 297.003906 L 113.625 297.003906 L 113.625 297.742188 L 112.699219 297.742188 L 112.699219 303.511719 L 113.625 303.511719 Z M 116.113281 304.382812 C 115.75 304.378906 115.410156 304.332031 115.09375 304.238281 C 114.773438 304.140625 114.515625 304.035156 114.308594 303.921875 L 114.308594 302.894531 L 114.355469 302.894531 C 114.433594 302.957031 114.523438 303.027344 114.632812 303.101562 C 114.730469 303.179688 114.871094 303.257812 115.050781 303.335938 C 115.203125 303.410156 115.375 303.472656 115.566406 303.527344 C 115.75 303.578125 115.941406 303.605469 116.144531 303.605469 C 116.289062 303.605469 116.445312 303.589844 116.613281 303.558594 C 116.777344 303.527344 116.902344 303.484375 116.984375 303.429688 C 117.097656 303.355469 117.179688 303.277344 117.226562 303.191406 C 117.277344 303.109375 117.300781 302.980469 117.304688 302.808594 C 117.300781 302.59375 117.242188 302.429688 117.128906 302.316406 C 117.007812 302.210938 116.796875 302.117188 116.496094 302.039062 C 116.375 302.011719 116.222656 301.976562 116.035156 301.9375 C 115.851562 301.898438 115.675781 301.859375 115.519531 301.8125 C 115.097656 301.695312 114.796875 301.507812 114.613281 301.253906 C 114.425781 301.007812 114.332031 300.703125 114.332031 300.339844 C 114.332031 299.855469 114.515625 299.457031 114.882812 299.144531 C 115.253906 298.835938 115.746094 298.683594 116.359375 298.679688 C 116.660156 298.683594 116.964844 298.71875 117.269531 298.792969 C 117.570312 298.871094 117.828125 298.964844 118.039062 299.074219 L 118.039062 300.050781 L 117.992188 300.050781 C 117.753906 299.867188 117.492188 299.726562 117.207031 299.617188 C 116.921875 299.515625 116.632812 299.460938 116.339844 299.457031 C 116.035156 299.460938 115.78125 299.523438 115.578125 299.648438 C 115.367188 299.769531 115.265625 299.960938 115.265625 300.21875 C 115.265625 300.445312 115.324219 300.617188 115.449219 300.730469 C 115.570312 300.84375 115.769531 300.933594 116.042969 301.003906 C 116.175781 301.039062 116.328125 301.074219 116.496094 301.105469 C 116.664062 301.140625 116.839844 301.183594 117.027344 301.226562 C 117.425781 301.328125 117.730469 301.492188 117.9375 301.726562 C 118.136719 301.960938 118.238281 302.28125 118.242188 302.683594 C 118.238281 302.917969 118.191406 303.140625 118.101562 303.351562 C 118.003906 303.5625 117.871094 303.738281 117.695312 303.882812 C 117.5 304.050781 117.277344 304.171875 117.035156 304.253906 C 116.789062 304.335938 116.480469 304.378906 116.113281 304.382812 Z M 120.566406 304.382812 C 120.199219 304.378906 119.859375 304.332031 119.546875 304.238281 C 119.226562 304.140625 118.964844 304.035156 118.757812 303.921875 L 118.757812 302.894531 L 118.804688 302.894531 C 118.882812 302.957031 118.972656 303.027344 119.082031 303.101562 C 119.183594 303.179688 119.324219 303.257812 119.503906 303.335938 C 119.65625 303.410156 119.824219 303.472656 120.015625 303.527344 C 120.199219 303.578125 120.394531 303.605469 120.597656 303.605469 C 120.742188 303.605469 120.898438 303.589844 121.0625 303.558594 C 121.226562 303.527344 121.351562 303.484375 121.433594 303.429688 C 121.546875 303.355469 121.628906 303.277344 121.679688 303.191406 C 121.730469 303.109375 121.753906 302.980469 121.757812 302.808594 C 121.753906 302.59375 121.695312 302.429688 121.578125 302.316406 C 121.457031 302.210938 121.246094 302.117188 120.949219 302.039062 C 120.828125 302.011719 120.675781 301.976562 120.488281 301.9375 C 120.300781 301.898438 120.125 301.859375 119.96875 301.8125 C 119.550781 301.695312 119.25 301.507812 119.0625 301.253906 C 118.875 301.007812 118.78125 300.703125 118.78125 300.339844 C 118.78125 299.855469 118.964844 299.457031 119.335938 299.144531 C 119.707031 298.835938 120.195312 298.683594 120.8125 298.679688 C 121.109375 298.683594 121.414062 298.71875 121.722656 298.792969 C 122.023438 298.871094 122.277344 298.964844 122.488281 299.074219 L 122.488281 300.050781 L 122.441406 300.050781 C 122.207031 299.867188 121.945312 299.726562 121.660156 299.617188 C 121.371094 299.515625 121.082031 299.460938 120.792969 299.457031 C 120.488281 299.460938 120.230469 299.523438 120.027344 299.648438 C 119.816406 299.769531 119.71875 299.960938 119.71875 300.21875 C 119.71875 300.445312 119.773438 300.617188 119.898438 300.730469 C 120.019531 300.84375 120.21875 300.933594 120.496094 301.003906 C 120.628906 301.039062 120.78125 301.074219 120.949219 301.105469 C 121.113281 301.140625 121.289062 301.183594 121.476562 301.226562 C 121.878906 301.328125 122.183594 301.492188 122.386719 301.726562 C 122.585938 301.960938 122.6875 302.28125 122.691406 302.683594 C 122.6875 302.917969 122.640625 303.140625 122.550781 303.351562 C 122.453125 303.5625 122.320312 303.738281 122.148438 303.882812 C 121.953125 304.050781 121.730469 304.171875 121.484375 304.253906 C 121.238281 304.335938 120.933594 304.378906 120.566406 304.382812 Z M 127.777344 304.25 L 126.859375 304.25 L 126.859375 303.644531 C 126.574219 303.894531 126.308594 304.082031 126.054688 304.210938 C 125.804688 304.339844 125.519531 304.402344 125.210938 304.402344 C 124.96875 304.402344 124.75 304.363281 124.542969 304.285156 C 124.328125 304.207031 124.144531 304.085938 123.992188 303.914062 C 123.832031 303.75 123.710938 303.539062 123.628906 303.277344 C 123.539062 303.023438 123.5 302.710938 123.503906 302.339844 L 123.503906 298.8125 L 124.417969 298.8125 L 124.417969 301.910156 C 124.414062 302.203125 124.425781 302.4375 124.449219 302.625 C 124.46875 302.816406 124.515625 302.984375 124.59375 303.125 C 124.664062 303.269531 124.765625 303.371094 124.894531 303.433594 C 125.019531 303.5 125.207031 303.535156 125.449219 303.53125 C 125.671875 303.535156 125.910156 303.472656 126.160156 303.34375 C 126.414062 303.21875 126.644531 303.058594 126.859375 302.871094 L 126.859375 298.8125 L 127.777344 298.8125 Z M 131.460938 304.375 C 130.589844 304.371094 129.917969 304.128906 129.445312 303.640625 C 128.964844 303.15625 128.722656 302.460938 128.726562 301.5625 C 128.722656 300.679688 128.957031 299.972656 129.421875 299.449219 C 129.882812 298.925781 130.492188 298.664062 131.242188 298.660156 C 131.578125 298.664062 131.875 298.714844 132.140625 298.808594 C 132.394531 298.910156 132.625 299.0625 132.820312 299.265625 C 133.015625 299.476562 133.164062 299.730469 133.269531 300.027344 C 133.371094 300.328125 133.421875 300.695312 133.425781 301.128906 L 133.425781 301.625 L 129.65625 301.625 C 129.65625 302.265625 129.816406 302.746094 130.132812 303.078125 C 130.453125 303.417969 130.894531 303.582031 131.453125 303.578125 C 131.652344 303.582031 131.847656 303.5625 132.042969 303.511719 C 132.234375 303.46875 132.40625 303.410156 132.566406 303.335938 C 132.730469 303.261719 132.871094 303.1875 132.984375 303.117188 C 133.097656 303.046875 133.191406 302.984375 133.269531 302.921875 L 133.324219 302.921875 L 133.324219 303.917969 C 133.214844 303.960938 133.078125 304.015625 132.921875 304.078125 C 132.757812 304.144531 132.617188 304.191406 132.492188 304.226562 C 132.316406 304.273438 132.152344 304.308594 132.007812 304.335938 C 131.863281 304.359375 131.679688 304.371094 131.460938 304.375 Z M 132.53125 300.925781 C 132.523438 300.683594 132.496094 300.46875 132.445312 300.289062 C 132.390625 300.109375 132.316406 299.957031 132.222656 299.832031 C 132.113281 299.703125 131.976562 299.601562 131.808594 299.527344 C 131.640625 299.457031 131.433594 299.421875 131.1875 299.417969 C 130.945312 299.421875 130.738281 299.457031 130.566406 299.527344 C 130.394531 299.601562 130.238281 299.707031 130.105469 299.84375 C 129.964844 299.988281 129.859375 300.148438 129.792969 300.320312 C 129.71875 300.496094 129.675781 300.699219 129.65625 300.925781 Z M 141.882812 298.089844 L 138.746094 304.25 L 137.710938 304.25 L 141.03125 297.855469 L 137.285156 297.855469 L 137.285156 297.003906 L 141.882812 297.003906 Z M 110.359375 294.277344 "/>
<path fill-rule="nonzero" fill="rgb(94.117647%, 97.254902%, 100%)" fill-opacity="1" stroke-width="1" stroke-linecap="butt" stroke-linejoin="miter" stroke="rgb(70.196078%, 70.196078%, 70.196078%)" stroke-opacity="1" stroke-miterlimit="4" d="M 232.739427 -139.388864 C 232.739427 -129.448152 224.679495 -121.392138 214.738783 -121.392138 C 204.79807 -121.392138 196.738138 -129.448152 196.738138 -139.388864 C 196.738138 -149.333496 204.79807 -157.389509 214.738783 -157.389509 C 224.679495 -157.389509 232.739427 -149.333496 232.739427 -139.388864 Z M 232.739427 -139.388864 " transform="matrix(0.996926, 0, 0, 0.996926, 3.987704, 376.589306)"/>
<path fill-rule="nonzero" fill="rgb(0%, 0%, 0%)" fill-opacity="1" d="M 205.390625 240.617188 L 202.574219 240.617188 L 202.574219 239.878906 L 203.5 239.878906 L 203.5 234.109375 L 202.574219 234.109375 L 202.574219 233.371094 L 205.390625 233.371094 L 205.390625 234.109375 L 204.464844 234.109375 L 204.464844 239.878906 L 205.390625 239.878906 Z M 207.878906 240.75 C 207.511719 240.746094 207.171875 240.699219 206.859375 240.605469 C 206.539062 240.507812 206.277344 240.402344 206.070312 240.289062 L 206.070312 239.261719 L 206.117188 239.261719 C 206.195312 239.324219 206.285156 239.394531 206.394531 239.46875 C 206.496094 239.546875 206.636719 239.625 206.816406 239.703125 C 206.96875 239.777344 207.136719 239.839844 207.328125 239.894531 C 207.511719 239.949219 207.707031 239.976562 207.910156 239.976562 C 208.054688 239.976562 208.210938 239.960938 208.378906 239.925781 C 208.539062 239.894531 208.664062 239.851562 208.746094 239.796875 C 208.859375 239.722656 208.941406 239.644531 208.992188 239.558594 C 209.042969 239.476562 209.066406 239.347656 209.070312 239.175781 C 209.066406 238.960938 209.007812 238.800781 208.890625 238.6875 C 208.769531 238.578125 208.558594 238.484375 208.261719 238.40625 C 208.140625 238.378906 207.988281 238.34375 207.800781 238.304688 C 207.613281 238.265625 207.4375 238.226562 207.28125 238.179688 C 206.863281 238.0625 206.5625 237.875 206.375 237.625 C 206.1875 237.375 206.09375 237.070312 206.09375 236.707031 C 206.09375 236.226562 206.277344 235.824219 206.648438 235.511719 C 207.019531 235.203125 207.507812 235.054688 208.125 235.050781 C 208.421875 235.054688 208.726562 235.089844 209.035156 235.160156 C 209.335938 235.238281 209.59375 235.332031 209.800781 235.441406 L 209.800781 236.421875 L 209.753906 236.421875 C 209.519531 236.238281 209.257812 236.09375 208.972656 235.984375 C 208.683594 235.882812 208.398438 235.828125 208.105469 235.824219 C 207.800781 235.828125 207.542969 235.890625 207.339844 236.015625 C 207.132812 236.140625 207.03125 236.332031 207.03125 236.585938 C 207.03125 236.8125 207.089844 236.984375 207.210938 237.097656 C 207.332031 237.210938 207.53125 237.300781 207.808594 237.371094 C 207.941406 237.410156 208.09375 237.445312 208.261719 237.476562 C 208.425781 237.511719 208.601562 237.554688 208.789062 237.597656 C 209.191406 237.695312 209.496094 237.859375 209.699219 238.09375 C 209.898438 238.328125 210 238.648438 210.003906 239.050781 C 210 239.285156 209.953125 239.507812 209.863281 239.71875 C 209.765625 239.929688 209.636719 240.109375 209.460938 240.25 C 209.265625 240.417969 209.042969 240.539062 208.796875 240.621094 C 208.550781 240.703125 208.246094 240.746094 207.878906 240.75 Z M 212.328125 240.75 C 211.964844 240.746094 211.625 240.699219 211.308594 240.605469 C 210.988281 240.507812 210.730469 240.402344 210.523438 240.289062 L 210.523438 239.261719 L 210.570312 239.261719 C 210.648438 239.324219 210.738281 239.394531 210.847656 239.46875 C 210.945312 239.546875 211.085938 239.625 211.265625 239.703125 C 211.417969 239.777344 211.589844 239.839844 211.78125 239.894531 C 211.964844 239.949219 212.160156 239.976562 212.359375 239.976562 C 212.503906 239.976562 212.660156 239.960938 212.828125 239.925781 C 212.992188 239.894531 213.117188 239.851562 213.199219 239.796875 C 213.3125 239.722656 213.394531 239.644531 213.445312 239.558594 C 213.492188 239.476562 213.515625 239.347656 213.519531 239.175781 C 213.515625 238.960938 213.460938 238.800781 213.34375 238.6875 C 213.222656 238.578125 213.011719 238.484375 212.710938 238.40625 C 212.589844 238.378906 212.4375 238.34375 212.25 238.304688 C 212.066406 238.265625 211.890625 238.226562 211.734375 238.179688 C 211.3125 238.0625 211.011719 237.875 210.828125 237.625 C 210.640625 237.375 210.546875 237.070312 210.546875 236.707031 C 210.546875 236.226562 210.730469 235.824219 211.097656 235.511719 C 211.46875 235.203125 211.960938 235.054688 212.574219 235.050781 C 212.875 235.054688 213.179688 235.089844 213.484375 235.160156 C 213.785156 235.238281 214.042969 235.332031 214.253906 235.441406 L 214.253906 236.421875 L 214.207031 236.421875 C 213.96875 236.238281 213.707031 236.09375 213.425781 235.984375 C 213.136719 235.882812 212.847656 235.828125 212.554688 235.824219 C 212.25 235.828125 211.996094 235.890625 211.792969 236.015625 C 211.582031 236.140625 211.480469 236.332031 211.480469 236.585938 C 211.480469 236.8125 211.539062 236.984375 211.664062 237.097656 C 211.785156 237.210938 211.984375 237.300781 212.257812 237.371094 C 212.390625 237.410156 212.542969 237.445312 212.710938 237.476562 C 212.878906 237.511719 213.054688 237.554688 213.242188 237.597656 C 213.640625 237.695312 213.945312 237.859375 214.152344 238.09375 C 214.351562 238.328125 214.453125 238.648438 214.457031 239.050781 C 214.453125 239.285156 214.40625 239.507812 214.316406 239.71875 C 214.21875 239.929688 214.085938 240.109375 213.910156 240.25 C 213.714844 240.417969 213.492188 240.539062 213.25 240.621094 C 213.003906 240.703125 212.695312 240.746094 212.328125 240.75 Z M 219.542969 240.617188 L 218.621094 240.617188 L 218.621094 240.015625 C 218.339844 240.261719 218.074219 240.449219 217.820312 240.578125 C 217.566406 240.707031 217.28125 240.769531 216.976562 240.769531 C 216.734375 240.769531 216.511719 240.730469 216.304688 240.652344 C 216.089844 240.574219 215.910156 240.453125 215.757812 240.28125 C 215.597656 240.121094 215.476562 239.90625 215.394531 239.644531 C 215.304688 239.390625 215.261719 239.078125 215.265625 238.710938 L 215.265625 235.179688 L 216.179688 235.179688 L 216.179688 238.277344 C 216.175781 238.570312 216.1875 238.808594 216.210938 238.992188 C 216.230469 239.183594 216.277344 239.351562 216.355469 239.492188 C 216.425781 239.636719 216.527344 239.738281 216.660156 239.800781 C 216.785156 239.867188 216.972656 239.902344 217.214844 239.898438 C 217.433594 239.902344 217.671875 239.839844 217.925781 239.710938 C 218.179688 239.585938 218.410156 239.425781 218.621094 239.238281 L 218.621094 235.179688 L 219.542969 235.179688 Z M 223.226562 240.742188 C 222.351562 240.738281 221.683594 240.496094 221.207031 240.011719 C 220.730469 239.523438 220.488281 238.832031 220.492188 237.929688 C 220.488281 237.046875 220.722656 236.34375 221.183594 235.816406 C 221.648438 235.292969 222.257812 235.035156 223.007812 235.03125 C 223.34375 235.035156 223.636719 235.085938 223.902344 235.175781 C 224.160156 235.277344 224.390625 235.429688 224.585938 235.632812 C 224.78125 235.84375 224.925781 236.097656 225.03125 236.398438 C 225.132812 236.695312 225.183594 237.0625 225.1875 237.5 L 225.1875 237.992188 L 221.417969 237.992188 C 221.417969 238.632812 221.578125 239.113281 221.898438 239.445312 C 222.21875 239.785156 222.65625 239.953125 223.21875 239.949219 C 223.417969 239.953125 223.609375 239.929688 223.804688 239.878906 C 223.996094 239.835938 224.171875 239.777344 224.332031 239.703125 C 224.496094 239.628906 224.636719 239.554688 224.75 239.484375 C 224.863281 239.414062 224.953125 239.351562 225.03125 239.289062 L 225.085938 239.289062 L 225.085938 240.285156 C 224.976562 240.328125 224.84375 240.382812 224.6875 240.445312 C 224.523438 240.511719 224.382812 240.558594 224.257812 240.59375 C 224.078125 240.640625 223.914062 240.675781 223.769531 240.703125 C 223.625 240.726562 223.445312 240.738281 223.226562 240.742188 Z M 224.296875 237.292969 C 224.289062 237.050781 224.261719 236.835938 224.210938 236.65625 C 224.15625 236.476562 224.078125 236.328125 223.984375 236.203125 C 223.875 236.070312 223.738281 235.96875 223.574219 235.894531 C 223.40625 235.824219 223.199219 235.789062 222.953125 235.785156 C 222.707031 235.789062 222.5 235.824219 222.332031 235.894531 C 222.160156 235.96875 222.003906 236.074219 221.871094 236.214844 C 221.730469 236.359375 221.625 236.515625 221.554688 236.6875 C 221.480469 236.863281 221.4375 237.066406 221.417969 237.292969 Z M 232.511719 235.058594 C 232.511719 234.738281 232.40625 234.46875 232.1875 234.246094 C 231.96875 234.03125 231.664062 233.921875 231.28125 233.917969 C 230.925781 233.921875 230.636719 234.019531 230.410156 234.210938 C 230.183594 234.410156 230.070312 234.675781 230.074219 235.003906 C 230.070312 235.242188 230.128906 235.445312 230.246094 235.609375 C 230.359375 235.78125 230.53125 235.929688 230.765625 236.058594 C 230.863281 236.117188 231.015625 236.195312 231.222656 236.289062 C 231.425781 236.390625 231.617188 236.460938 231.789062 236.511719 C 232.070312 236.300781 232.261719 236.078125 232.363281 235.84375 C 232.464844 235.617188 232.511719 235.351562 232.511719 235.058594 Z M 232.648438 238.691406 C 232.644531 238.394531 232.585938 238.160156 232.472656 237.980469 C 232.355469 237.808594 232.128906 237.632812 231.796875 237.445312 C 231.683594 237.386719 231.539062 237.320312 231.355469 237.246094 C 231.171875 237.175781 230.964844 237.089844 230.738281 236.992188 C 230.464844 237.175781 230.257812 237.398438 230.117188 237.65625 C 229.972656 237.917969 229.902344 238.214844 229.90625 238.546875 C 229.902344 238.984375 230.03125 239.347656 230.300781 239.628906 C 230.5625 239.917969 230.894531 240.058594 231.292969 240.058594 C 231.699219 240.058594 232.03125 239.9375 232.28125 239.691406 C 232.523438 239.449219 232.644531 239.113281 232.648438 238.691406 Z M 231.285156 240.78125 C 230.925781 240.78125 230.59375 240.726562 230.300781 240.621094 C 230 240.515625 229.753906 240.363281 229.546875 240.160156 C 229.34375 239.96875 229.1875 239.738281 229.082031 239.46875 C 228.972656 239.199219 228.917969 238.917969 228.921875 238.617188 C 228.917969 238.226562 229.023438 237.863281 229.238281 237.535156 C 229.445312 237.207031 229.753906 236.945312 230.152344 236.746094 L 230.152344 236.71875 C 229.796875 236.515625 229.53125 236.289062 229.359375 236.039062 C 229.1875 235.792969 229.101562 235.484375 229.101562 235.113281 C 229.101562 234.570312 229.304688 234.113281 229.71875 233.75 C 230.125 233.386719 230.652344 233.207031 231.285156 233.203125 C 231.941406 233.207031 232.46875 233.378906 232.867188 233.722656 C 233.265625 234.066406 233.464844 234.511719 233.46875 235.050781 C 233.464844 235.375 233.371094 235.695312 233.179688 236.015625 C 232.988281 236.335938 232.714844 236.582031 232.363281 236.757812 L 232.363281 236.785156 C 232.78125 236.984375 233.101562 237.226562 233.320312 237.507812 C 233.539062 237.789062 233.648438 238.152344 233.648438 238.597656 C 233.648438 239.21875 233.421875 239.742188 232.972656 240.15625 C 232.519531 240.574219 231.960938 240.78125 231.285156 240.78125 Z M 202.121094 230.644531 "/>
<path fill-rule="nonzero" fill="rgb(94.117647%, 97.254902%, 100%)" fill-opacity="1" stroke-width="1" stroke-linecap="butt" stroke-linejoin="miter" stroke="rgb(70.196078%, 70.196078%, 70.196078%)" stroke-opacity="1" stroke-miterlimit="4" d="M 202.164976 -18.000105 C 202.164976 -8.059392 194.105045 0.00053909 184.164332 0.00053909 C 174.223619 0.00053909 166.163687 -8.059392 166.163687 -18.000105 C 166.163687 -27.940818 174.223619 -36.000749 184.164332 -36.000749 C 194.105045 -36.000749 202.164976 -27.940818 202.164976 -18.000105 Z M 202.164976 -18.000105 " transform="matrix(0.996926, 0, 0, 0.996926, 3.987704, 376.589306)"/>
<path fill-rule="nonzero" fill="rgb(0%, 0%, 0%)" fill-opacity="1" d="M 174.910156 361.636719 L 172.09375 361.636719 L 172.09375 360.894531 L 173.019531 360.894531 L 173.019531 355.128906 L 172.09375 355.128906 L 172.09375 354.386719 L 174.910156 354.386719 L 174.910156 355.128906 L 173.984375 355.128906 L 173.984375 360.894531 L 174.910156 360.894531 Z M 177.398438 361.769531 C 177.03125 361.765625 176.695312 361.71875 176.378906 361.625 C 176.058594 361.527344 175.796875 361.421875 175.589844 361.308594 L 175.589844 360.28125 L 175.636719 360.28125 C 175.714844 360.34375 175.804688 360.414062 175.914062 360.488281 C 176.015625 360.566406 176.15625 360.640625 176.335938 360.71875 C 176.488281 360.792969 176.660156 360.855469 176.847656 360.910156 C 177.03125 360.964844 177.226562 360.992188 177.429688 360.992188 C 177.574219 360.992188 177.730469 360.976562 177.898438 360.941406 C 178.058594 360.910156 178.183594 360.867188 178.265625 360.8125 C 178.378906 360.738281 178.460938 360.660156 178.511719 360.578125 C 178.5625 360.496094 178.585938 360.367188 178.589844 360.195312 C 178.585938 359.980469 178.527344 359.816406 178.410156 359.703125 C 178.289062 359.59375 178.078125 359.5 177.78125 359.421875 C 177.660156 359.394531 177.507812 359.359375 177.320312 359.320312 C 177.132812 359.285156 176.957031 359.246094 176.800781 359.199219 C 176.382812 359.082031 176.082031 358.894531 175.894531 358.640625 C 175.707031 358.390625 175.613281 358.085938 175.613281 357.726562 C 175.613281 357.242188 175.796875 356.839844 176.167969 356.53125 C 176.539062 356.222656 177.027344 356.070312 177.644531 356.066406 C 177.945312 356.070312 178.246094 356.105469 178.554688 356.179688 C 178.855469 356.257812 179.113281 356.351562 179.320312 356.460938 L 179.320312 357.4375 L 179.273438 357.4375 C 179.039062 357.253906 178.777344 357.109375 178.492188 357 C 178.203125 356.898438 177.917969 356.84375 177.625 356.839844 C 177.320312 356.84375 177.0625 356.90625 176.859375 357.03125 C 176.652344 357.15625 176.550781 357.347656 176.550781 357.605469 C 176.550781 357.832031 176.609375 358.003906 176.730469 358.113281 C 176.851562 358.226562 177.050781 358.316406 177.328125 358.386719 C 177.460938 358.425781 177.613281 358.460938 177.78125 358.492188 C 177.949219 358.527344 178.121094 358.570312 178.308594 358.613281 C 178.710938 358.714844 179.015625 358.878906 179.222656 359.113281 C 179.417969 359.34375 179.519531 359.664062 179.523438 360.070312 C 179.519531 360.304688 179.472656 360.527344 179.382812 360.734375 C 179.285156 360.945312 179.15625 361.125 178.980469 361.269531 C 178.785156 361.4375 178.5625 361.558594 178.316406 361.640625 C 178.070312 361.722656 177.765625 361.765625 177.398438 361.769531 Z M 181.84375 361.769531 C 181.480469 361.765625 181.140625 361.71875 180.824219 361.625 C 180.507812 361.527344 180.246094 361.421875 180.039062 361.308594 L 180.039062 360.28125 L 180.085938 360.28125 C 180.164062 360.34375 180.253906 360.414062 180.363281 360.488281 C 180.464844 360.566406 180.601562 360.640625 180.78125 360.71875 C 180.933594 360.792969 181.105469 360.855469 181.296875 360.910156 C 181.480469 360.964844 181.675781 360.992188 181.875 360.992188 C 182.019531 360.992188 182.175781 360.976562 182.34375 360.941406 C 182.507812 360.910156 182.632812 360.867188 182.714844 360.8125 C 182.828125 360.738281 182.910156 360.660156 182.960938 360.578125 C 183.011719 360.496094 183.035156 360.367188 183.039062 360.195312 C 183.035156 359.980469 182.976562 359.816406 182.859375 359.703125 C 182.738281 359.59375 182.527344 359.5 182.226562 359.421875 C 182.105469 359.394531 181.953125 359.359375 181.769531 359.320312 C 181.582031 359.285156 181.40625 359.246094 181.25 359.199219 C 180.828125 359.082031 180.53125 358.894531 180.34375 358.640625 C 180.15625 358.390625 180.0625 358.085938 180.0625 357.726562 C 180.0625 357.242188 180.246094 356.839844 180.613281 356.53125 C 180.984375 356.222656 181.476562 356.070312 182.089844 356.066406 C 182.390625 356.070312 182.695312 356.105469 183.003906 356.179688 C 183.300781 356.257812 183.558594 356.351562 183.769531 356.460938 L 183.769531 357.4375 L 183.722656 357.4375 C 183.484375 357.253906 183.222656 357.109375 182.941406 357 C 182.652344 356.898438 182.363281 356.84375 182.070312 356.839844 C 181.769531 356.84375 181.511719 356.90625 181.308594 357.03125 C 181.097656 357.15625 180.996094 357.347656 180.996094 357.605469 C 180.996094 357.832031 181.054688 358.003906 181.179688 358.113281 C 181.300781 358.226562 181.5 358.316406 181.777344 358.386719 C 181.90625 358.425781 182.058594 358.460938 182.226562 358.492188 C 182.394531 358.527344 182.570312 358.570312 182.757812 358.613281 C 183.15625 358.714844 183.460938 358.878906 183.667969 359.113281 C 183.867188 359.34375 183.96875 359.664062 183.972656 360.070312 C 183.96875 360.304688 183.921875 360.527344 183.832031 360.734375 C 183.734375 360.945312 183.601562 361.125 183.425781 361.269531 C 183.230469 361.4375 183.011719 361.558594 182.765625 361.640625 C 182.519531 361.722656 182.210938 361.765625 181.84375 361.769531 Z M 189.0625 361.636719 L 188.140625 361.636719 L 188.140625 361.03125 C 187.859375 361.28125 187.59375 361.46875 187.339844 361.597656 C 187.085938 361.726562 186.804688 361.789062 186.496094 361.789062 C 186.253906 361.789062 186.03125 361.75 185.824219 361.671875 C 185.609375 361.59375 185.429688 361.472656 185.277344 361.300781 C 185.117188 361.136719 184.996094 360.921875 184.914062 360.660156 C 184.824219 360.410156 184.78125 360.097656 184.785156 359.726562 L 184.785156 356.199219 L 185.699219 356.199219 L 185.699219 359.296875 C 185.695312 359.585938 185.707031 359.824219 185.730469 360.011719 C 185.75 360.203125 185.796875 360.371094 185.875 360.511719 C 185.945312 360.652344 186.046875 360.753906 186.179688 360.816406 C 186.304688 360.882812 186.492188 360.917969 186.734375 360.914062 C 186.953125 360.917969 187.191406 360.855469 187.445312 360.726562 C 187.699219 360.601562 187.929688 360.445312 188.140625 360.257812 L 188.140625 356.199219 L 189.0625 356.199219 Z M 192.742188 361.761719 C 191.871094 361.757812 191.199219 361.515625 190.722656 361.027344 C 190.246094 360.542969 190.003906 359.847656 190.007812 358.949219 C 190.003906 358.0625 190.238281 357.359375 190.699219 356.832031 C 191.164062 356.3125 191.773438 356.050781 192.523438 356.046875 C 192.859375 356.050781 193.15625 356.101562 193.417969 356.195312 C 193.675781 356.296875 193.90625 356.449219 194.101562 356.652344 C 194.296875 356.859375 194.445312 357.113281 194.546875 357.414062 C 194.648438 357.714844 194.699219 358.078125 194.703125 358.515625 L 194.703125 359.011719 L 190.933594 359.011719 C 190.933594 359.648438 191.09375 360.132812 191.414062 360.464844 C 191.734375 360.800781 192.171875 360.96875 192.734375 360.964844 C 192.933594 360.96875 193.128906 360.945312 193.320312 360.894531 C 193.511719 360.851562 193.6875 360.792969 193.847656 360.71875 C 194.011719 360.644531 194.152344 360.574219 194.265625 360.503906 C 194.378906 360.433594 194.46875 360.371094 194.546875 360.308594 L 194.601562 360.308594 L 194.601562 361.304688 C 194.492188 361.347656 194.359375 361.402344 194.203125 361.464844 C 194.039062 361.53125 193.898438 361.578125 193.773438 361.613281 C 193.59375 361.660156 193.429688 361.695312 193.285156 361.722656 C 193.144531 361.746094 192.960938 361.757812 192.742188 361.761719 Z M 193.8125 358.308594 C 193.804688 358.066406 193.777344 357.855469 193.726562 357.675781 C 193.671875 357.496094 193.59375 357.34375 193.5 357.21875 C 193.390625 357.085938 193.253906 356.984375 193.089844 356.910156 C 192.921875 356.839844 192.714844 356.804688 192.46875 356.800781 C 192.222656 356.804688 192.015625 356.839844 191.847656 356.910156 C 191.675781 356.984375 191.519531 357.089844 191.386719 357.230469 C 191.246094 357.375 191.140625 357.535156 191.070312 357.707031 C 190.996094 357.882812 190.953125 358.082031 190.933594 358.308594 Z M 202.132812 357.367188 C 202.128906 356.875 202.085938 356.476562 202 356.164062 C 201.90625 355.855469 201.78125 355.613281 201.625 355.445312 C 201.480469 355.289062 201.332031 355.183594 201.1875 355.125 C 201.039062 355.066406 200.878906 355.035156 200.710938 355.035156 C 200.304688 355.035156 199.988281 355.179688 199.753906 355.464844 C 199.519531 355.75 199.398438 356.164062 199.402344 356.707031 C 199.398438 357.007812 199.4375 357.261719 199.519531 357.460938 C 199.589844 357.660156 199.71875 357.832031 199.894531 357.972656 C 200.015625 358.074219 200.152344 358.140625 200.3125 358.171875 C 200.464844 358.207031 200.632812 358.222656 200.8125 358.222656 C 201.015625 358.222656 201.242188 358.1875 201.484375 358.113281 C 201.726562 358.046875 201.9375 357.949219 202.113281 357.824219 C 202.113281 357.777344 202.117188 357.714844 202.125 357.632812 C 202.128906 357.554688 202.128906 357.464844 202.132812 357.367188 Z M 198.410156 356.746094 C 198.410156 356.375 198.46875 356.03125 198.59375 355.71875 C 198.710938 355.414062 198.878906 355.148438 199.09375 354.921875 C 199.292969 354.710938 199.535156 354.542969 199.828125 354.421875 C 200.117188 354.300781 200.414062 354.242188 200.714844 354.242188 C 201.046875 354.242188 201.347656 354.296875 201.621094 354.410156 C 201.886719 354.523438 202.121094 354.683594 202.324219 354.894531 C 202.574219 355.160156 202.765625 355.511719 202.90625 355.941406 C 203.039062 356.375 203.109375 356.917969 203.113281 357.578125 C 203.109375 358.179688 203.042969 358.75 202.910156 359.285156 C 202.777344 359.820312 202.578125 360.265625 202.3125 360.617188 C 202.035156 360.996094 201.699219 361.285156 201.308594 361.480469 C 200.917969 361.679688 200.4375 361.777344 199.859375 361.777344 C 199.726562 361.777344 199.585938 361.769531 199.449219 361.753906 C 199.300781 361.738281 199.164062 361.710938 199.039062 361.675781 L 199.039062 360.742188 L 199.089844 360.742188 C 199.167969 360.792969 199.292969 360.835938 199.46875 360.875 C 199.632812 360.917969 199.808594 360.941406 199.992188 360.9375 C 200.628906 360.941406 201.125 360.730469 201.492188 360.3125 C 201.851562 359.894531 202.058594 359.296875 202.109375 358.515625 C 201.847656 358.691406 201.601562 358.820312 201.367188 358.902344 C 201.128906 358.984375 200.871094 359.027344 200.601562 359.023438 C 200.328125 359.027344 200.082031 358.996094 199.863281 358.9375 C 199.640625 358.878906 199.421875 358.765625 199.199219 358.59375 C 198.9375 358.394531 198.742188 358.144531 198.609375 357.84375 C 198.476562 357.542969 198.410156 357.175781 198.410156 356.746094 Z M 171.644531 351.664062 "/>
</svg>
